<svg width="600" height="400" viewBox="0 0 600 400" fill="none" xmlns="http://www.w3.org/2000/svg">
<rect width="600" height="400" fill="white"/>
<rect x="32" y="27" width="536" height="346" rx="20.0438" fill="#E2DAD6"/>
<rect x="65" y="85" width="469" height="255" rx="20.6127" fill="white"/>
<path d="M59.3593 60.1191C58.7162 60.1191 58.1128 60 57.549 59.7618C56.9933 59.5157 56.505 59.1743 56.0842 58.7376C55.6713 58.3009 55.3458 57.7928 55.1076 57.2132C54.8694 56.6336 54.7503 56.0103 54.7503 55.3434C54.7503 54.6844 54.8654 54.069 55.0957 53.4974C55.3339 52.9178 55.6634 52.4096 56.0842 51.973C56.505 51.5363 56.9933 51.1949 57.549 50.9487C58.1048 50.7026 58.7082 50.5795 59.3593 50.5795C59.9548 50.5795 60.4788 50.6629 60.9314 50.8296C61.3839 50.9884 61.8325 51.2504 62.2771 51.6157C62.3407 51.6633 62.3843 51.7189 62.4081 51.7824C62.4399 51.838 62.4518 51.8975 62.4439 51.9611C62.4439 52.0166 62.432 52.0722 62.4081 52.1278C62.4002 52.2469 62.3486 52.3422 62.2533 52.4136C62.166 52.4851 62.0588 52.5248 61.9318 52.5327C61.8127 52.5327 61.6936 52.489 61.5745 52.4017C61.2728 52.1397 60.9552 51.9412 60.6217 51.8062C60.2882 51.6713 59.8674 51.6038 59.3593 51.6038C58.875 51.6038 58.4184 51.703 57.9897 51.9015C57.5689 52.1 57.1957 52.3699 56.8702 52.7114C56.5447 53.0528 56.2906 53.4497 56.108 53.9023C55.9254 54.3549 55.8341 54.8352 55.8341 55.3434C55.8341 55.8674 55.9254 56.3557 56.108 56.8082C56.2906 57.2529 56.5447 57.6498 56.8702 57.9992C57.1957 58.3406 57.5689 58.6066 57.9897 58.7971C58.4184 58.9877 58.875 59.083 59.3593 59.083C59.7801 59.083 60.1771 59.0155 60.5503 58.8805C60.9234 58.7376 61.2767 58.5391 61.6102 58.285C61.7372 58.1897 61.8643 58.15 61.9913 58.1659C62.1183 58.1739 62.2255 58.2255 62.3129 58.3208C62.4002 58.4081 62.4439 58.5312 62.4439 58.6899C62.4439 58.7614 62.432 58.8329 62.4081 58.9043C62.3843 58.9678 62.3407 59.0274 62.2771 59.083C61.8643 59.4403 61.4077 59.7023 60.9075 59.869C60.4153 60.0357 59.8992 60.1191 59.3593 60.1191ZM66.7715 60.0476C66.1363 60.0476 65.5686 59.9087 65.0684 59.6308C64.5762 59.345 64.1871 58.9559 63.9013 58.4637C63.6234 57.9635 63.4845 57.3918 63.4845 56.7487C63.4845 56.0976 63.6234 55.526 63.9013 55.0337C64.1871 54.5335 64.5762 54.1445 65.0684 53.8666C65.5686 53.5807 66.1363 53.4378 66.7715 53.4378C67.4067 53.4378 67.9704 53.5807 68.4627 53.8666C68.9629 54.1445 69.3519 54.5335 69.6298 55.0337C69.9156 55.526 70.0625 56.0976 70.0705 56.7487C70.0705 57.3918 69.9275 57.9635 69.6417 58.4637C69.3559 58.9559 68.9668 59.345 68.4746 59.6308C67.9823 59.9087 67.4146 60.0476 66.7715 60.0476ZM66.7715 59.0711C67.2082 59.0711 67.5933 58.9718 67.9267 58.7733C68.2602 58.5748 68.5222 58.3009 68.7128 57.9516C68.9033 57.6022 68.9986 57.2013 68.9986 56.7487C68.9986 56.2961 68.9033 55.8952 68.7128 55.5458C68.5222 55.1885 68.2602 54.9107 67.9267 54.7122C67.5933 54.5137 67.2082 54.4144 66.7715 54.4144C66.3428 54.4144 65.9577 54.5137 65.6163 54.7122C65.2828 54.9107 65.0208 55.1885 64.8303 55.5458C64.6397 55.8952 64.5444 56.2961 64.5444 56.7487C64.5444 57.2013 64.6397 57.6022 64.8303 57.9516C65.0208 58.3009 65.2828 58.5748 65.6163 58.7733C65.9577 58.9718 66.3428 59.0711 66.7715 59.0711ZM73.3549 60C73.0214 60 72.7237 59.9087 72.4617 59.7261C72.1997 59.5435 71.9932 59.2934 71.8424 58.9758C71.6995 58.6503 71.628 58.2771 71.628 57.8563V51.2346C71.628 51.0758 71.6756 50.9487 71.7709 50.8535C71.8741 50.7502 72.0051 50.6986 72.1639 50.6986C72.3307 50.6986 72.4617 50.7502 72.5569 50.8535C72.6602 50.9487 72.7118 51.0758 72.7118 51.2346V57.8563C72.7118 58.1659 72.7713 58.42 72.8904 58.6185C73.0175 58.817 73.1723 58.9162 73.3549 58.9162H73.6526C73.8035 58.9162 73.9226 58.9678 74.0099 59.0711C74.0973 59.1663 74.1409 59.2973 74.1409 59.4641C74.1409 59.6229 74.0734 59.7539 73.9385 59.8571C73.8114 59.9524 73.6447 60 73.4383 60H73.3549ZM77.9483 60.0476C77.3132 60.0476 76.7455 59.9087 76.2453 59.6308C75.753 59.345 75.364 58.9559 75.0781 58.4637C74.8003 57.9635 74.6613 57.3918 74.6613 56.7487C74.6613 56.0976 74.8003 55.526 75.0781 55.0337C75.364 54.5335 75.753 54.1445 76.2453 53.8666C76.7455 53.5807 77.3132 53.4378 77.9483 53.4378C78.5835 53.4378 79.1472 53.5807 79.6395 53.8666C80.1397 54.1445 80.5288 54.5335 80.8066 55.0337C81.0925 55.526 81.2394 56.0976 81.2473 56.7487C81.2473 57.3918 81.1044 57.9635 80.8186 58.4637C80.5327 58.9559 80.1437 59.345 79.6514 59.6308C79.1592 59.9087 78.5915 60.0476 77.9483 60.0476ZM77.9483 59.0711C78.385 59.0711 78.7701 58.9718 79.1036 58.7733C79.437 58.5748 79.6991 58.3009 79.8896 57.9516C80.0802 57.6022 80.1754 57.2013 80.1754 56.7487C80.1754 56.2961 80.0802 55.8952 79.8896 55.5458C79.6991 55.1885 79.437 54.9107 79.1036 54.7122C78.7701 54.5137 78.385 54.4144 77.9483 54.4144C77.5196 54.4144 77.1345 54.5137 76.7931 54.7122C76.4597 54.9107 76.1976 55.1885 76.0071 55.5458C75.8165 55.8952 75.7213 56.2961 75.7213 56.7487C75.7213 57.2013 75.8165 57.6022 76.0071 57.9516C76.1976 58.3009 76.4597 58.5748 76.7931 58.7733C77.1345 58.9718 77.5196 59.0711 77.9483 59.0711ZM83.5432 55.9508C83.5591 55.4664 83.6822 55.0337 83.9124 54.6526C84.1506 54.2715 84.4642 53.9698 84.8533 53.7475C85.2423 53.5252 85.6711 53.414 86.1395 53.414C86.5762 53.414 86.9017 53.4815 87.1161 53.6165C87.3384 53.7515 87.4218 53.9222 87.3662 54.1286C87.3424 54.2477 87.2947 54.335 87.2233 54.3906C87.1518 54.4382 87.0685 54.466 86.9732 54.474C86.8779 54.474 86.7747 54.466 86.6635 54.4501C86.1792 54.3708 85.7465 54.3827 85.3654 54.4859C84.9843 54.5891 84.6826 54.7677 84.4603 55.0218C84.238 55.2759 84.1268 55.5855 84.1268 55.9508H83.5432ZM83.579 60C83.4122 60 83.2812 59.9563 83.1859 59.869C83.0907 59.7737 83.043 59.6387 83.043 59.4641V54.0214C83.043 53.8547 83.0907 53.7237 83.1859 53.6284C83.2812 53.5331 83.4122 53.4855 83.579 53.4855C83.7616 53.4855 83.8966 53.5331 83.9839 53.6284C84.0792 53.7157 84.1268 53.8467 84.1268 54.0214V59.4641C84.1268 59.6308 84.0792 59.7618 83.9839 59.8571C83.8966 59.9524 83.7616 60 83.579 60ZM92.8634 60C92.7046 60 92.5696 59.9484 92.4585 59.8452C92.3552 59.734 92.3036 59.599 92.3036 59.4403V51.2584C92.3036 51.0996 92.3552 50.9686 92.4585 50.8654C92.5696 50.7542 92.7046 50.6986 92.8634 50.6986H95.2453C95.8408 50.6986 96.3648 50.8296 96.8174 51.0917C97.2779 51.3537 97.6352 51.7149 97.8892 52.1754C98.1433 52.628 98.2703 53.156 98.2703 53.7594C98.2703 54.339 98.1433 54.8551 97.8892 55.3076C97.6352 55.7602 97.2779 56.1135 96.8174 56.3676C96.3648 56.6217 95.8408 56.7487 95.2453 56.7487H93.4231V59.4403C93.4231 59.599 93.3715 59.734 93.2683 59.8452C93.1651 59.9484 93.0301 60 92.8634 60ZM93.4231 55.7007H95.2453C95.6264 55.7007 95.9638 55.6173 96.2576 55.4505C96.5514 55.2838 96.7816 55.0536 96.9484 54.7598C97.1151 54.466 97.1985 54.1326 97.1985 53.7594C97.1985 53.3624 97.1151 53.0131 96.9484 52.7114C96.7816 52.4096 96.5514 52.1754 96.2576 52.0087C95.9638 51.834 95.6264 51.7467 95.2453 51.7467H93.4231V55.7007ZM102.101 60.0476C101.505 60.0476 100.973 59.9047 100.505 59.6189C100.036 59.3331 99.667 58.94 99.3971 58.4398C99.1271 57.9396 98.9922 57.3759 98.9922 56.7487C98.9922 56.1135 99.1351 55.5498 99.4209 55.0575C99.7147 54.5573 100.108 54.1643 100.6 53.8785C101.1 53.5847 101.66 53.4378 102.279 53.4378C102.906 53.4378 103.466 53.5847 103.958 53.8785C104.451 54.1643 104.84 54.5573 105.126 55.0575C105.419 55.5577 105.57 56.1215 105.578 56.7487L105.149 56.8559C105.149 57.4593 105.014 58.0032 104.744 58.4875C104.475 58.9718 104.109 59.3529 103.649 59.6308C103.196 59.9087 102.68 60.0476 102.101 60.0476ZM102.279 59.0711C102.708 59.0711 103.089 58.9718 103.423 58.7733C103.756 58.5669 104.018 58.289 104.209 57.9396C104.407 57.5824 104.506 57.1854 104.506 56.7487C104.506 56.3041 104.407 55.9071 104.209 55.5577C104.018 55.2004 103.756 54.9226 103.423 54.7241C103.089 54.5176 102.708 54.4144 102.279 54.4144C101.866 54.4144 101.489 54.5176 101.148 54.7241C100.806 54.9226 100.536 55.2004 100.338 55.5577C100.147 55.9071 100.052 56.3041 100.052 56.7487C100.052 57.1854 100.147 57.5824 100.338 57.9396C100.536 58.289 100.806 58.5669 101.148 58.7733C101.489 58.9718 101.866 59.0711 102.279 59.0711ZM105.018 60.0119C104.86 60.0119 104.729 59.9603 104.625 59.8571C104.522 59.7539 104.471 59.6229 104.471 59.4641V57.5585L104.697 56.4152L105.578 56.7487V59.4641C105.578 59.6229 105.523 59.7539 105.411 59.8571C105.308 59.9603 105.177 60.0119 105.018 60.0119ZM108.863 60C108.529 60 108.231 59.9087 107.969 59.7261C107.707 59.5435 107.501 59.2934 107.35 58.9758C107.207 58.6503 107.136 58.2771 107.136 57.8563V51.2346C107.136 51.0758 107.183 50.9487 107.279 50.8535C107.382 50.7502 107.513 50.6986 107.672 50.6986C107.838 50.6986 107.969 50.7502 108.065 50.8535C108.168 50.9487 108.219 51.0758 108.219 51.2346V57.8563C108.219 58.1659 108.279 58.42 108.398 58.6185C108.525 58.817 108.68 58.9162 108.863 58.9162H109.16C109.311 58.9162 109.43 58.9678 109.518 59.0711C109.605 59.1663 109.649 59.2973 109.649 59.4641C109.649 59.6229 109.581 59.7539 109.446 59.8571C109.319 59.9524 109.152 60 108.946 60H108.863ZM113.527 60.0476C112.868 60.0476 112.285 59.9087 111.777 59.6308C111.277 59.345 110.884 58.9559 110.598 58.4637C110.312 57.9635 110.169 57.3918 110.169 56.7487C110.169 56.0976 110.304 55.526 110.574 55.0337C110.844 54.5335 111.217 54.1445 111.693 53.8666C112.17 53.5807 112.722 53.4378 113.349 53.4378C113.96 53.4378 114.488 53.5768 114.933 53.8547C115.377 54.1246 115.719 54.5018 115.957 54.9861C116.195 55.4625 116.314 56.0143 116.314 56.6415C116.314 56.7765 116.267 56.8916 116.171 56.9869C116.084 57.0742 115.965 57.1179 115.814 57.1179H110.919V56.2366H115.826L115.338 56.582C115.33 56.1612 115.246 55.784 115.088 55.4505C114.929 55.1171 114.703 54.8551 114.409 54.6645C114.115 54.474 113.762 54.3787 113.349 54.3787C112.896 54.3787 112.503 54.4819 112.17 54.6883C111.844 54.8948 111.594 55.1766 111.419 55.5339C111.245 55.8912 111.157 56.2961 111.157 56.7487C111.157 57.2013 111.257 57.6062 111.455 57.9635C111.662 58.3128 111.94 58.5907 112.289 58.7971C112.646 59.0036 113.059 59.1068 113.527 59.1068C113.782 59.1068 114.044 59.0591 114.314 58.9639C114.591 58.8686 114.81 58.7574 114.969 58.6304C115.08 58.5431 115.199 58.4994 115.326 58.4994C115.453 58.4915 115.564 58.5272 115.659 58.6066C115.778 58.7177 115.842 58.8408 115.85 58.9758C115.858 59.1028 115.802 59.214 115.683 59.3092C115.413 59.5236 115.076 59.7023 114.671 59.8452C114.274 59.9802 113.893 60.0476 113.527 60.0476ZM120.306 60C119.901 60 119.536 59.9008 119.21 59.7023C118.885 59.4958 118.631 59.2219 118.448 58.8805C118.265 58.5312 118.174 58.1342 118.174 57.6895V51.9611C118.174 51.8023 118.222 51.6713 118.317 51.568C118.42 51.4648 118.551 51.4132 118.71 51.4132C118.869 51.4132 119 51.4648 119.103 51.568C119.206 51.6713 119.258 51.8023 119.258 51.9611V57.6895C119.258 58.0468 119.357 58.3406 119.556 58.5709C119.754 58.8011 120.004 58.9162 120.306 58.9162H120.675C120.81 58.9162 120.921 58.9678 121.009 59.0711C121.104 59.1743 121.152 59.3053 121.152 59.4641C121.152 59.6229 121.092 59.7539 120.973 59.8571C120.862 59.9524 120.715 60 120.532 60H120.306ZM117.531 54.6645C117.388 54.6645 117.269 54.6209 117.174 54.5335C117.078 54.4462 117.031 54.335 117.031 54.2C117.031 54.0571 117.078 53.942 117.174 53.8547C117.269 53.7673 117.388 53.7237 117.531 53.7237H120.401C120.544 53.7237 120.663 53.7673 120.759 53.8547C120.854 53.942 120.901 54.0571 120.901 54.2C120.901 54.335 120.854 54.4462 120.759 54.5335C120.663 54.6209 120.544 54.6645 120.401 54.6645H117.531ZM125.086 60C124.681 60 124.316 59.9008 123.99 59.7023C123.665 59.4958 123.411 59.2219 123.228 58.8805C123.046 58.5312 122.954 58.1342 122.954 57.6895V51.9611C122.954 51.8023 123.002 51.6713 123.097 51.568C123.2 51.4648 123.331 51.4132 123.49 51.4132C123.649 51.4132 123.78 51.4648 123.883 51.568C123.986 51.6713 124.038 51.8023 124.038 51.9611V57.6895C124.038 58.0468 124.137 58.3406 124.336 58.5709C124.534 58.8011 124.784 58.9162 125.086 58.9162H125.455C125.59 58.9162 125.701 58.9678 125.789 59.0711C125.884 59.1743 125.932 59.3053 125.932 59.4641C125.932 59.6229 125.872 59.7539 125.753 59.8571C125.642 59.9524 125.495 60 125.312 60H125.086ZM122.311 54.6645C122.168 54.6645 122.049 54.6209 121.954 54.5335C121.859 54.4462 121.811 54.335 121.811 54.2C121.811 54.0571 121.859 53.942 121.954 53.8547C122.049 53.7673 122.168 53.7237 122.311 53.7237H125.181C125.324 53.7237 125.443 53.7673 125.539 53.8547C125.634 53.942 125.682 54.0571 125.682 54.2C125.682 54.335 125.634 54.4462 125.539 54.5335C125.443 54.6209 125.324 54.6645 125.181 54.6645H122.311ZM130.45 60.0476C129.791 60.0476 129.207 59.9087 128.699 59.6308C128.199 59.345 127.806 58.9559 127.52 58.4637C127.234 57.9635 127.091 57.3918 127.091 56.7487C127.091 56.0976 127.226 55.526 127.496 55.0337C127.766 54.5335 128.139 54.1445 128.616 53.8666C129.092 53.5807 129.644 53.4378 130.271 53.4378C130.882 53.4378 131.41 53.5768 131.855 53.8547C132.3 54.1246 132.641 54.5018 132.879 54.9861C133.117 55.4625 133.237 56.0143 133.237 56.6415C133.237 56.7765 133.189 56.8916 133.094 56.9869C133.006 57.0742 132.887 57.1179 132.736 57.1179H127.842V56.2366H132.748L132.26 56.582C132.252 56.1612 132.169 55.784 132.01 55.4505C131.851 55.1171 131.625 54.8551 131.331 54.6645C131.037 54.474 130.684 54.3787 130.271 54.3787C129.819 54.3787 129.426 54.4819 129.092 54.6883C128.767 54.8948 128.516 55.1766 128.342 55.5339C128.167 55.8912 128.08 56.2961 128.08 56.7487C128.08 57.2013 128.179 57.6062 128.377 57.9635C128.584 58.3128 128.862 58.5907 129.211 58.7971C129.568 59.0036 129.981 59.1068 130.45 59.1068C130.704 59.1068 130.966 59.0591 131.236 58.9639C131.514 58.8686 131.732 58.7574 131.891 58.6304C132.002 58.5431 132.121 58.4994 132.248 58.4994C132.375 58.4915 132.486 58.5272 132.582 58.6066C132.701 58.7177 132.764 58.8408 132.772 58.9758C132.78 59.1028 132.724 59.214 132.605 59.3092C132.335 59.5236 131.998 59.7023 131.593 59.8452C131.196 59.9802 130.815 60.0476 130.45 60.0476Z" fill="#071952"/>
<rect x="152" y="137" width="38.7368" height="38.7368" rx="12.9123" fill="#E2DAD6"/>
<path d="M167.815 193.868C167.628 193.868 167.473 193.808 167.352 193.686C167.231 193.565 167.17 193.411 167.17 193.224V181.605C167.17 181.417 167.231 181.263 167.352 181.142C167.473 181.021 167.628 180.96 167.815 180.96H175.567C175.743 180.96 175.892 181.021 176.013 181.142C176.145 181.252 176.211 181.401 176.211 181.588C176.211 181.753 176.145 181.897 176.013 182.018C175.892 182.139 175.743 182.2 175.567 182.2H168.46V186.761H173.633C173.82 186.761 173.974 186.822 174.096 186.943C174.217 187.064 174.277 187.213 174.277 187.389C174.277 187.566 174.217 187.714 174.096 187.836C173.974 187.957 173.82 188.017 173.633 188.017H168.46V192.629H175.567C175.743 192.629 175.892 192.689 176.013 192.81C176.145 192.932 176.211 193.075 176.211 193.24C176.211 193.427 176.145 193.582 176.013 193.703C175.892 193.813 175.743 193.868 175.567 193.868H167.815ZM168.256 211.868C168.079 211.868 167.925 211.808 167.793 211.686C167.672 211.565 167.611 211.411 167.611 211.224C167.611 211.058 167.672 210.91 167.793 210.777L172.801 204.86C173.076 204.563 173.297 204.232 173.462 203.869C173.627 203.494 173.71 203.147 173.71 202.828C173.71 202.31 173.605 201.852 173.396 201.456C173.198 201.059 172.911 200.751 172.536 200.53C172.173 200.299 171.754 200.183 171.28 200.183C170.818 200.183 170.393 200.304 170.008 200.547C169.633 200.778 169.336 201.092 169.115 201.489C168.906 201.885 168.801 202.332 168.801 202.828C168.801 203.004 168.741 203.153 168.619 203.274C168.498 203.395 168.344 203.456 168.157 203.456C167.98 203.456 167.826 203.395 167.694 203.274C167.573 203.153 167.512 203.004 167.512 202.828C167.512 202.089 167.677 201.428 168.008 200.844C168.338 200.26 168.785 199.797 169.347 199.456C169.92 199.114 170.564 198.944 171.28 198.944C171.996 198.944 172.63 199.109 173.181 199.439C173.743 199.77 174.178 200.227 174.487 200.811C174.806 201.395 174.966 202.067 174.966 202.828C174.966 203.191 174.905 203.538 174.784 203.869C174.674 204.199 174.52 204.519 174.321 204.827C174.123 205.125 173.908 205.406 173.677 205.67L169.446 210.579H174.619C174.795 210.579 174.944 210.645 175.065 210.777C175.197 210.91 175.263 211.058 175.263 211.224C175.263 211.411 175.197 211.565 175.065 211.686C174.944 211.808 174.795 211.868 174.619 211.868H168.256ZM167.339 229.868C167.152 229.868 166.997 229.808 166.876 229.686C166.755 229.565 166.694 229.411 166.694 229.224V217.605C166.694 217.417 166.755 217.263 166.876 217.142C166.997 217.021 167.152 216.96 167.339 216.96H170.314C171.261 216.96 172.126 217.12 172.909 217.439C173.702 217.748 174.385 218.194 174.958 218.778C175.531 219.351 175.972 220.029 176.28 220.811C176.6 221.593 176.76 222.458 176.76 223.406C176.76 224.353 176.6 225.224 176.28 226.017C175.972 226.8 175.531 227.483 174.958 228.067C174.385 228.64 173.702 229.086 172.909 229.405C172.126 229.714 171.261 229.868 170.314 229.868H167.339ZM167.983 228.711H170.314C171.328 228.711 172.22 228.485 172.991 228.034C173.774 227.571 174.385 226.943 174.826 226.149C175.267 225.345 175.487 224.431 175.487 223.406C175.487 222.381 175.267 221.472 174.826 220.679C174.385 219.874 173.774 219.246 172.991 218.795C172.22 218.343 171.328 218.117 170.314 218.117H167.983V228.711ZM166.371 247.868C166.118 247.868 165.936 247.763 165.826 247.554C165.715 247.345 165.704 247.141 165.793 246.943L170.652 235.406C170.773 235.109 170.982 234.96 171.28 234.96C171.566 234.96 171.77 235.109 171.891 235.406L176.767 246.959C176.866 247.168 176.85 247.372 176.717 247.571C176.596 247.769 176.42 247.868 176.188 247.868C176.056 247.868 175.935 247.835 175.825 247.769C175.726 247.703 175.643 247.604 175.577 247.471L171.032 236.448H171.544L166.966 247.471C166.911 247.604 166.828 247.703 166.718 247.769C166.619 247.835 166.503 247.868 166.371 247.868ZM167.462 244.794L167.958 243.687H174.668L175.164 244.794H167.462ZM167.177 265.868C166.99 265.868 166.836 265.808 166.715 265.686C166.594 265.565 166.533 265.411 166.533 265.224V253.605C166.533 253.417 166.594 253.263 166.715 253.142C166.836 253.021 166.99 252.96 167.177 252.96H170.152C171.1 252.96 171.965 253.12 172.747 253.439C173.541 253.748 174.224 254.194 174.797 254.778C175.37 255.351 175.81 256.029 176.119 256.811C176.439 257.593 176.598 258.458 176.598 259.406C176.598 260.353 176.439 261.224 176.119 262.017C175.81 262.8 175.37 263.483 174.797 264.067C174.224 264.64 173.541 265.086 172.747 265.405C171.965 265.714 171.1 265.868 170.152 265.868H167.177ZM167.822 264.711H170.152C171.166 264.711 172.059 264.485 172.83 264.034C173.612 263.571 174.224 262.943 174.665 262.149C175.105 261.345 175.326 260.431 175.326 259.406C175.326 258.381 175.105 257.472 174.665 256.679C174.224 255.874 173.612 255.246 172.83 254.795C172.059 254.343 171.166 254.117 170.152 254.117H167.822V264.711ZM171.412 283.868C170.663 283.868 169.996 283.703 169.412 283.372C168.828 283.031 168.366 282.568 168.024 281.984C167.693 281.4 167.528 280.733 167.528 279.984C167.528 279.246 167.693 278.585 168.024 278.001C168.366 277.406 168.828 276.943 169.412 276.613C169.996 276.271 170.663 276.1 171.412 276.1C172.15 276.1 172.811 276.271 173.395 276.613C173.979 276.943 174.437 277.406 174.767 278.001C175.109 278.585 175.28 279.246 175.28 279.984C175.28 280.733 175.109 281.4 174.767 281.984C174.437 282.568 173.979 283.031 173.395 283.372C172.811 283.703 172.15 283.868 171.412 283.868ZM171.396 282.678C171.902 282.678 172.354 282.562 172.751 282.331C173.159 282.1 173.478 281.78 173.709 281.372C173.941 280.965 174.057 280.502 174.057 279.984C174.057 279.466 173.941 279.004 173.709 278.596C173.478 278.188 173.159 277.869 172.751 277.637C172.354 277.395 171.902 277.274 171.396 277.274C170.889 277.274 170.437 277.395 170.04 277.637C169.644 277.869 169.33 278.188 169.098 278.596C168.867 279.004 168.751 279.466 168.751 279.984C168.751 280.502 168.867 280.965 169.098 281.372C169.33 281.78 169.644 282.1 170.04 282.331C170.437 282.562 170.889 282.678 171.396 282.678ZM168.007 278.017L172.09 271.307C172.233 271.076 172.426 270.96 172.668 270.96C172.834 270.96 172.977 271.01 173.098 271.109C173.219 271.208 173.291 271.335 173.313 271.489C173.346 271.643 173.318 271.792 173.23 271.935L170.503 276.381L168.007 278.017Z" fill="#071952"/>
<rect x="216.561" y="137" width="38.7368" height="38.7368" rx="12.9123" fill="#E4003A"/>
<path d="M232.505 193.868C232.318 193.868 232.163 193.808 232.042 193.686C231.921 193.565 231.86 193.411 231.86 193.224V181.605C231.86 181.417 231.921 181.263 232.042 181.142C232.163 181.021 232.318 180.96 232.505 180.96H240.257C240.433 180.96 240.582 181.021 240.703 181.142C240.835 181.252 240.901 181.401 240.901 181.588C240.901 181.753 240.835 181.897 240.703 182.018C240.582 182.139 240.433 182.2 240.257 182.2H233.15V186.761H238.323C238.51 186.761 238.664 186.822 238.786 186.943C238.907 187.064 238.967 187.213 238.967 187.389C238.967 187.566 238.907 187.714 238.786 187.836C238.664 187.957 238.51 188.017 238.323 188.017H233.15V192.629H240.257C240.433 192.629 240.582 192.689 240.703 192.81C240.835 192.932 240.901 193.075 240.901 193.24C240.901 193.427 240.835 193.582 240.703 193.703C240.582 193.813 240.433 193.868 240.257 193.868H232.505ZM237.983 211.868C237.818 211.868 237.675 211.808 237.554 211.686C237.432 211.565 237.372 211.411 237.372 211.224V208.777H231.455C231.279 208.777 231.13 208.722 231.009 208.612C230.898 208.491 230.832 208.353 230.81 208.199C230.799 208.045 230.843 207.902 230.943 207.769L237.488 199.208C237.543 199.131 237.609 199.07 237.686 199.026C237.774 198.971 237.884 198.944 238.016 198.944C238.193 198.944 238.336 199.01 238.446 199.142C238.567 199.263 238.628 199.417 238.628 199.605V207.621H239.934C240.11 207.621 240.259 207.665 240.38 207.753C240.501 207.841 240.562 207.995 240.562 208.216C240.562 208.359 240.501 208.491 240.38 208.612C240.259 208.722 240.11 208.777 239.934 208.777H238.628V211.224C238.628 211.411 238.567 211.565 238.446 211.686C238.325 211.808 238.171 211.868 237.983 211.868ZM232.149 208.116L231.918 207.621H237.372V200.53L237.702 200.877L232.149 208.116ZM235.919 229.868C235.103 229.868 234.404 229.609 233.82 229.091C233.236 228.573 232.79 227.835 232.481 226.877C232.184 225.907 232.035 224.745 232.035 223.389C232.035 222.056 232.184 220.905 232.481 219.935C232.79 218.965 233.236 218.222 233.82 217.704C234.404 217.186 235.103 216.927 235.919 216.927C236.756 216.927 237.461 217.191 238.034 217.72C238.618 218.238 239.059 218.982 239.357 219.952C239.665 220.921 239.819 222.067 239.819 223.389C239.819 224.734 239.665 225.89 239.357 226.86C239.059 227.819 238.618 228.562 238.034 229.091C237.461 229.609 236.756 229.868 235.919 229.868ZM235.919 228.579C236.514 228.579 237.004 228.359 237.39 227.918C237.775 227.466 238.062 226.849 238.249 226.067C238.437 225.284 238.53 224.392 238.53 223.389C238.53 222.398 238.431 221.516 238.233 220.745C238.045 219.963 237.759 219.346 237.373 218.894C236.988 218.442 236.503 218.216 235.919 218.216C235.335 218.216 234.85 218.442 234.464 218.894C234.09 219.335 233.803 219.946 233.605 220.728C233.418 221.511 233.324 222.398 233.324 223.389C233.324 224.403 233.418 225.301 233.605 226.083C233.803 226.855 234.09 227.466 234.464 227.918C234.85 228.359 235.335 228.579 235.919 228.579ZM235.919 247.868C235.103 247.868 234.404 247.609 233.82 247.091C233.236 246.573 232.79 245.835 232.481 244.877C232.184 243.907 232.035 242.745 232.035 241.389C232.035 240.056 232.184 238.905 232.481 237.935C232.79 236.965 233.236 236.222 233.82 235.704C234.404 235.186 235.103 234.927 235.919 234.927C236.756 234.927 237.461 235.191 238.034 235.72C238.618 236.238 239.059 236.982 239.357 237.952C239.665 238.921 239.819 240.067 239.819 241.389C239.819 242.734 239.665 243.89 239.357 244.86C239.059 245.819 238.618 246.562 238.034 247.091C237.461 247.609 236.756 247.868 235.919 247.868ZM235.919 246.579C236.514 246.579 237.004 246.359 237.39 245.918C237.775 245.466 238.062 244.849 238.249 244.067C238.437 243.284 238.53 242.392 238.53 241.389C238.53 240.398 238.431 239.516 238.233 238.745C238.045 237.963 237.759 237.346 237.373 236.894C236.988 236.442 236.503 236.216 235.919 236.216C235.335 236.216 234.85 236.442 234.464 236.894C234.09 237.335 233.803 237.946 233.605 238.728C233.418 239.511 233.324 240.398 233.324 241.389C233.324 242.403 233.418 243.301 233.605 244.083C233.803 244.855 234.09 245.466 234.464 245.918C234.85 246.359 235.335 246.579 235.919 246.579ZM236.054 265.951C235.282 265.951 234.588 265.786 233.971 265.455C233.365 265.113 232.886 264.651 232.533 264.067C232.181 263.483 232.004 262.822 232.004 262.083C232.004 261.896 232.06 261.736 232.17 261.604C232.28 261.472 232.429 261.406 232.616 261.406C232.803 261.406 232.952 261.472 233.062 261.604C233.172 261.736 233.227 261.896 233.227 262.083C233.227 262.59 233.349 263.047 233.591 263.455C233.834 263.852 234.164 264.171 234.583 264.414C235.012 264.645 235.486 264.761 236.004 264.761C236.864 264.761 237.536 264.524 238.021 264.05C238.505 263.565 238.748 262.943 238.748 262.182C238.748 261.643 238.632 261.174 238.401 260.778C238.169 260.37 237.855 260.056 237.459 259.836C237.062 259.604 236.616 259.488 236.12 259.488C235.944 259.488 235.795 259.428 235.674 259.307C235.552 259.185 235.492 259.031 235.492 258.844C235.492 258.668 235.552 258.519 235.674 258.398C235.795 258.276 235.944 258.216 236.12 258.216C236.505 258.216 236.858 258.122 237.178 257.935C237.508 257.737 237.773 257.478 237.971 257.158C238.169 256.839 238.268 256.486 238.268 256.1C238.268 255.516 238.07 255.032 237.673 254.646C237.277 254.249 236.748 254.051 236.087 254.051C235.624 254.051 235.211 254.145 234.847 254.332C234.484 254.508 234.197 254.751 233.988 255.059C233.789 255.357 233.69 255.698 233.69 256.084C233.69 256.271 233.63 256.431 233.508 256.563C233.398 256.684 233.255 256.745 233.079 256.745C232.891 256.745 232.743 256.684 232.632 256.563C232.522 256.431 232.467 256.277 232.467 256.1C232.467 255.494 232.621 254.949 232.93 254.464C233.25 253.968 233.679 253.583 234.219 253.307C234.759 253.021 235.382 252.877 236.087 252.877C236.726 252.877 237.299 253.021 237.806 253.307C238.324 253.583 238.731 253.968 239.029 254.464C239.337 254.949 239.491 255.494 239.491 256.1C239.491 256.475 239.398 256.839 239.211 257.191C239.034 257.544 238.797 257.863 238.5 258.15C238.202 258.425 237.877 258.64 237.525 258.794C238.087 258.96 238.555 259.213 238.93 259.555C239.304 259.896 239.58 260.298 239.756 260.761C239.932 261.213 240.02 261.687 240.02 262.182C240.02 262.91 239.844 263.56 239.491 264.133C239.15 264.695 238.676 265.141 238.07 265.471C237.464 265.791 236.792 265.951 236.054 265.951ZM231.061 283.868C230.808 283.868 230.626 283.763 230.516 283.554C230.405 283.345 230.394 283.141 230.483 282.943L235.342 271.406C235.463 271.109 235.672 270.96 235.97 270.96C236.256 270.96 236.46 271.109 236.581 271.406L241.457 282.959C241.556 283.168 241.54 283.372 241.407 283.571C241.286 283.769 241.11 283.868 240.878 283.868C240.746 283.868 240.625 283.835 240.515 283.769C240.416 283.703 240.333 283.604 240.267 283.471L235.722 272.448H236.234L231.656 283.471C231.601 283.604 231.518 283.703 231.408 283.769C231.309 283.835 231.193 283.868 231.061 283.868ZM232.152 280.794L232.648 279.687H239.358L239.854 280.794H232.152Z" fill="#071952"/>
<rect x="281.381" y="137.258" width="38.2203" height="38.2203" rx="12.654" fill="white" stroke="#071952" stroke-width="0.516491"/>
<rect x="345.684" y="137" width="38.7368" height="38.7368" rx="12.9123" fill="#F5F6F7"/>
<path d="M361.16 193.868C360.983 193.868 360.829 193.808 360.697 193.686C360.576 193.554 360.515 193.4 360.515 193.224V181.605C360.515 181.417 360.576 181.263 360.697 181.142C360.818 181.021 360.972 180.96 361.16 180.96H368.911C369.098 180.96 369.253 181.021 369.374 181.142C369.495 181.252 369.556 181.401 369.556 181.588C369.556 181.753 369.495 181.897 369.374 182.018C369.253 182.139 369.098 182.2 368.911 182.2H361.804V186.761H366.977C367.165 186.761 367.319 186.822 367.44 186.943C367.561 187.064 367.622 187.213 367.622 187.389C367.622 187.566 367.561 187.714 367.44 187.836C367.319 187.957 367.165 188.017 366.977 188.017H361.804V193.224C361.804 193.4 361.744 193.554 361.622 193.686C361.501 193.808 361.347 193.868 361.16 193.868ZM365.127 211.868C364.333 211.868 363.623 211.686 362.995 211.323C362.366 210.948 361.865 210.447 361.491 209.819C361.127 209.18 360.945 208.463 360.945 207.67C360.945 207.483 361.006 207.329 361.127 207.207C361.248 207.086 361.397 207.026 361.573 207.026C361.76 207.026 361.915 207.086 362.036 207.207C362.168 207.329 362.234 207.483 362.234 207.67C362.234 208.221 362.361 208.717 362.614 209.158C362.868 209.598 363.209 209.945 363.639 210.199C364.08 210.452 364.576 210.579 365.127 210.579C365.678 210.579 366.173 210.452 366.614 210.199C367.055 209.945 367.402 209.598 367.655 209.158C367.909 208.717 368.035 208.221 368.035 207.67C368.035 207.119 367.909 206.623 367.655 206.183C367.402 205.742 367.055 205.395 366.614 205.141C366.173 204.888 365.678 204.761 365.127 204.761H362.234C362.047 204.761 361.893 204.701 361.771 204.579C361.65 204.447 361.59 204.293 361.59 204.117V199.588C361.59 199.412 361.65 199.263 361.771 199.142C361.893 199.01 362.047 198.944 362.234 198.944H368.035C368.212 198.944 368.361 199.01 368.482 199.142C368.614 199.263 368.68 199.412 368.68 199.588C368.68 199.764 368.619 199.919 368.498 200.051C368.377 200.172 368.223 200.233 368.035 200.233H362.862V203.472H365.127C365.931 203.472 366.647 203.659 367.275 204.034C367.903 204.398 368.399 204.899 368.763 205.538C369.137 206.166 369.325 206.877 369.325 207.67C369.325 208.463 369.137 209.18 368.763 209.819C368.399 210.447 367.903 210.948 367.275 211.323C366.647 211.686 365.931 211.868 365.127 211.868ZM361.16 229.868C360.983 229.868 360.829 229.808 360.697 229.686C360.576 229.554 360.515 229.4 360.515 229.224V217.605C360.515 217.417 360.576 217.263 360.697 217.142C360.818 217.021 360.972 216.96 361.16 216.96H368.911C369.098 216.96 369.253 217.021 369.374 217.142C369.495 217.252 369.556 217.401 369.556 217.588C369.556 217.753 369.495 217.897 369.374 218.018C369.253 218.139 369.098 218.2 368.911 218.2H361.804V222.761H366.977C367.165 222.761 367.319 222.822 367.44 222.943C367.561 223.064 367.622 223.213 367.622 223.389C367.622 223.566 367.561 223.714 367.44 223.836C367.319 223.957 367.165 224.017 366.977 224.017H361.804V229.224C361.804 229.4 361.744 229.554 361.622 229.686C361.501 229.808 361.347 229.868 361.16 229.868ZM365.225 247.868C364.475 247.868 363.809 247.703 363.225 247.372C362.641 247.031 362.178 246.568 361.836 245.984C361.506 245.4 361.341 244.733 361.341 243.984C361.341 243.246 361.506 242.585 361.836 242.001C362.178 241.406 362.641 240.943 363.225 240.613C363.809 240.271 364.475 240.1 365.225 240.1C365.963 240.1 366.624 240.271 367.208 240.613C367.792 240.943 368.249 241.406 368.58 242.001C368.921 242.585 369.092 243.246 369.092 243.984C369.092 244.733 368.921 245.4 368.58 245.984C368.249 246.568 367.792 247.031 367.208 247.372C366.624 247.703 365.963 247.868 365.225 247.868ZM365.208 246.678C365.715 246.678 366.167 246.562 366.563 246.331C366.971 246.1 367.29 245.78 367.522 245.372C367.753 244.965 367.869 244.502 367.869 243.984C367.869 243.466 367.753 243.004 367.522 242.596C367.29 242.188 366.971 241.869 366.563 241.637C366.167 241.395 365.715 241.274 365.208 241.274C364.701 241.274 364.249 241.395 363.853 241.637C363.456 241.869 363.142 242.188 362.911 242.596C362.679 243.004 362.564 243.466 362.564 243.984C362.564 244.502 362.679 244.965 362.911 245.372C363.142 245.78 363.456 246.1 363.853 246.331C364.249 246.562 364.701 246.678 365.208 246.678ZM361.82 242.017L365.902 235.307C366.045 235.076 366.238 234.96 366.481 234.96C366.646 234.96 366.789 235.01 366.91 235.109C367.032 235.208 367.103 235.335 367.125 235.489C367.158 235.643 367.131 235.792 367.043 235.935L364.316 240.381L361.82 242.017ZM361.16 265.868C360.983 265.868 360.829 265.808 360.697 265.686C360.576 265.554 360.515 265.4 360.515 265.224V253.605C360.515 253.417 360.576 253.263 360.697 253.142C360.818 253.021 360.972 252.96 361.16 252.96H368.911C369.098 252.96 369.253 253.021 369.374 253.142C369.495 253.252 369.556 253.401 369.556 253.588C369.556 253.753 369.495 253.897 369.374 254.018C369.253 254.139 369.098 254.2 368.911 254.2H361.804V258.761H366.977C367.165 258.761 367.319 258.822 367.44 258.943C367.561 259.064 367.622 259.213 367.622 259.389C367.622 259.566 367.561 259.714 367.44 259.836C367.319 259.957 367.165 260.017 366.977 260.017H361.804V265.224C361.804 265.4 361.744 265.554 361.622 265.686C361.501 265.808 361.347 265.868 361.16 265.868ZM363.049 283.868C362.873 283.868 362.718 283.808 362.586 283.686C362.465 283.565 362.404 283.411 362.404 283.224C362.404 283.168 362.415 283.108 362.437 283.042C362.46 282.976 362.493 282.899 362.537 282.81L367.462 272.233H361.776C361.589 272.233 361.429 272.172 361.297 272.051C361.176 271.919 361.115 271.764 361.115 271.588C361.115 271.412 361.176 271.263 361.297 271.142C361.429 271.01 361.589 270.944 361.776 270.944H368.503C368.679 270.944 368.828 271.01 368.949 271.142C369.071 271.263 369.131 271.412 369.131 271.588C369.131 271.643 369.12 271.704 369.098 271.77C369.076 271.825 369.054 271.88 369.032 271.935L363.627 283.505C363.506 283.747 363.313 283.868 363.049 283.868Z" fill="#071952"/>
<path d="M296.728 193.868C296.552 193.868 296.398 193.808 296.266 193.686C296.144 193.554 296.084 193.4 296.084 193.224V181.605C296.084 181.417 296.144 181.263 296.266 181.142C296.387 181.021 296.541 180.96 296.728 180.96H304.48C304.667 180.96 304.821 181.021 304.943 181.142C305.064 181.252 305.124 181.401 305.124 181.588C305.124 181.753 305.064 181.897 304.943 182.018C304.821 182.139 304.667 182.2 304.48 182.2H297.373V186.761H302.546C302.733 186.761 302.888 186.822 303.009 186.943C303.13 187.064 303.191 187.213 303.191 187.389C303.191 187.566 303.13 187.714 303.009 187.836C302.888 187.957 302.733 188.017 302.546 188.017H297.373V193.224C297.373 193.4 297.312 193.554 297.191 193.686C297.07 193.808 296.916 193.868 296.728 193.868ZM296.728 211.868C296.552 211.868 296.398 211.808 296.266 211.686C296.144 211.554 296.084 211.4 296.084 211.224V199.605C296.084 199.417 296.144 199.263 296.266 199.142C296.387 199.021 296.541 198.96 296.728 198.96H304.48C304.667 198.96 304.821 199.021 304.943 199.142C305.064 199.252 305.124 199.401 305.124 199.588C305.124 199.753 305.064 199.897 304.943 200.018C304.821 200.139 304.667 200.2 304.48 200.2H297.373V204.761H302.546C302.733 204.761 302.888 204.822 303.009 204.943C303.13 205.064 303.191 205.213 303.191 205.389C303.191 205.566 303.13 205.714 303.009 205.836C302.888 205.957 302.733 206.017 302.546 206.017H297.373V211.224C297.373 211.4 297.312 211.554 297.191 211.686C297.07 211.808 296.916 211.868 296.728 211.868ZM296.728 229.868C296.552 229.868 296.398 229.808 296.266 229.686C296.144 229.554 296.084 229.4 296.084 229.224V217.605C296.084 217.417 296.144 217.263 296.266 217.142C296.387 217.021 296.541 216.96 296.728 216.96H304.48C304.667 216.96 304.821 217.021 304.943 217.142C305.064 217.252 305.124 217.401 305.124 217.588C305.124 217.753 305.064 217.897 304.943 218.018C304.821 218.139 304.667 218.2 304.48 218.2H297.373V222.761H302.546C302.733 222.761 302.888 222.822 303.009 222.943C303.13 223.064 303.191 223.213 303.191 223.389C303.191 223.566 303.13 223.714 303.009 223.836C302.888 223.957 302.733 224.017 302.546 224.017H297.373V229.224C297.373 229.4 297.312 229.554 297.191 229.686C297.07 229.808 296.916 229.868 296.728 229.868ZM296.728 247.868C296.552 247.868 296.398 247.808 296.266 247.686C296.144 247.554 296.084 247.4 296.084 247.224V235.605C296.084 235.417 296.144 235.263 296.266 235.142C296.387 235.021 296.541 234.96 296.728 234.96H304.48C304.667 234.96 304.821 235.021 304.943 235.142C305.064 235.252 305.124 235.401 305.124 235.588C305.124 235.753 305.064 235.897 304.943 236.018C304.821 236.139 304.667 236.2 304.48 236.2H297.373V240.761H302.546C302.733 240.761 302.888 240.822 303.009 240.943C303.13 241.064 303.191 241.213 303.191 241.389C303.191 241.566 303.13 241.714 303.009 241.836C302.888 241.957 302.733 242.017 302.546 242.017H297.373V247.224C297.373 247.4 297.312 247.554 297.191 247.686C297.07 247.808 296.916 247.868 296.728 247.868ZM296.728 265.868C296.552 265.868 296.398 265.808 296.266 265.686C296.144 265.554 296.084 265.4 296.084 265.224V253.605C296.084 253.417 296.144 253.263 296.266 253.142C296.387 253.021 296.541 252.96 296.728 252.96H304.48C304.667 252.96 304.821 253.021 304.943 253.142C305.064 253.252 305.124 253.401 305.124 253.588C305.124 253.753 305.064 253.897 304.943 254.018C304.821 254.139 304.667 254.2 304.48 254.2H297.373V258.761H302.546C302.733 258.761 302.888 258.822 303.009 258.943C303.13 259.064 303.191 259.213 303.191 259.389C303.191 259.566 303.13 259.714 303.009 259.836C302.888 259.957 302.733 260.017 302.546 260.017H297.373V265.224C297.373 265.4 297.312 265.554 297.191 265.686C297.07 265.808 296.916 265.868 296.728 265.868ZM296.728 283.868C296.552 283.868 296.398 283.808 296.266 283.686C296.144 283.554 296.084 283.4 296.084 283.224V271.605C296.084 271.417 296.144 271.263 296.266 271.142C296.387 271.021 296.541 270.96 296.728 270.96H304.48C304.667 270.96 304.821 271.021 304.943 271.142C305.064 271.252 305.124 271.401 305.124 271.588C305.124 271.753 305.064 271.897 304.943 272.018C304.821 272.139 304.667 272.2 304.48 272.2H297.373V276.761H302.546C302.733 276.761 302.888 276.822 303.009 276.943C303.13 277.064 303.191 277.213 303.191 277.389C303.191 277.566 303.13 277.714 303.009 277.836C302.888 277.957 302.733 278.017 302.546 278.017H297.373V283.224C297.373 283.4 297.312 283.554 297.191 283.686C297.07 283.808 296.916 283.868 296.728 283.868Z" fill="#071952"/>
<rect x="410.245" y="137" width="38.7368" height="38.7368" rx="12.9123" fill="#071952"/>
<path d="M430.095 193.868C429.28 193.868 428.58 193.609 427.996 193.091C427.412 192.573 426.966 191.835 426.657 190.877C426.36 189.907 426.211 188.745 426.211 187.389C426.211 186.056 426.36 184.905 426.657 183.935C426.966 182.965 427.412 182.222 427.996 181.704C428.58 181.186 429.28 180.927 430.095 180.927C430.933 180.927 431.638 181.191 432.211 181.72C432.795 182.238 433.235 182.982 433.533 183.952C433.841 184.921 433.996 186.067 433.996 187.389C433.996 188.734 433.841 189.89 433.533 190.86C433.235 191.819 432.795 192.562 432.211 193.091C431.638 193.609 430.933 193.868 430.095 193.868ZM430.095 192.579C430.69 192.579 431.181 192.359 431.566 191.918C431.952 191.466 432.238 190.849 432.426 190.067C432.613 189.284 432.707 188.392 432.707 187.389C432.707 186.398 432.607 185.516 432.409 184.745C432.222 183.963 431.935 183.346 431.55 182.894C431.164 182.442 430.679 182.216 430.095 182.216C429.511 182.216 429.026 182.442 428.641 182.894C428.266 183.335 427.98 183.946 427.781 184.728C427.594 185.511 427.5 186.398 427.5 187.389C427.5 188.403 427.594 189.301 427.781 190.083C427.98 190.855 428.266 191.466 428.641 191.918C429.026 192.359 429.511 192.579 430.095 192.579ZM427.611 211.868C427.434 211.868 427.28 211.808 427.148 211.686C427.027 211.565 426.966 211.411 426.966 211.224C426.966 211.168 426.977 211.108 426.999 211.042C427.021 210.976 427.054 210.899 427.098 210.81L432.024 200.233H426.338C426.151 200.233 425.991 200.172 425.859 200.051C425.738 199.919 425.677 199.764 425.677 199.588C425.677 199.412 425.738 199.263 425.859 199.142C425.991 199.01 426.151 198.944 426.338 198.944H433.065C433.241 198.944 433.39 199.01 433.511 199.142C433.632 199.263 433.693 199.412 433.693 199.588C433.693 199.643 433.682 199.704 433.66 199.77C433.638 199.825 433.616 199.88 433.594 199.935L428.189 211.505C428.068 211.747 427.875 211.868 427.611 211.868ZM430.441 229.868C430.264 229.868 430.11 229.808 429.978 229.686C429.857 229.565 429.796 229.411 429.796 229.224V218.481L428.143 219.059C428.022 219.114 427.912 219.142 427.813 219.142C427.625 219.142 427.471 219.081 427.35 218.96C427.229 218.839 427.168 218.69 427.168 218.514C427.168 218.381 427.196 218.26 427.251 218.15C427.317 218.04 427.427 217.957 427.581 217.902L430.127 217.026C430.182 217.004 430.237 216.988 430.292 216.977C430.358 216.955 430.413 216.944 430.457 216.944C430.644 216.944 430.793 217.01 430.903 217.142C431.025 217.263 431.085 217.412 431.085 217.588V229.224C431.085 229.411 431.025 229.565 430.903 229.686C430.782 229.808 430.628 229.868 430.441 229.868ZM429.439 234.944C430.188 234.944 430.855 235.114 431.439 235.456C432.023 235.786 432.48 236.244 432.811 236.828C433.152 237.412 433.323 238.078 433.323 238.828C433.323 239.566 433.152 240.232 432.811 240.827C432.48 241.411 432.023 241.874 431.439 242.216C430.855 242.546 430.188 242.712 429.439 242.712C428.69 242.712 428.023 242.546 427.439 242.216C426.866 241.874 426.409 241.411 426.068 240.827C425.737 240.232 425.572 239.566 425.572 238.828C425.572 238.078 425.737 237.412 426.068 236.828C426.409 236.244 426.866 235.786 427.439 235.456C428.023 235.114 428.69 234.944 429.439 234.944ZM429.439 236.133C428.932 236.133 428.481 236.249 428.084 236.481C427.687 236.712 427.373 237.032 427.142 237.439C426.91 237.847 426.795 238.31 426.795 238.828C426.795 239.345 426.91 239.808 427.142 240.216C427.373 240.624 427.687 240.949 428.084 241.191C428.481 241.422 428.932 241.538 429.439 241.538C429.946 241.538 430.398 241.422 430.794 241.191C431.202 240.949 431.522 240.624 431.753 240.216C431.984 239.808 432.1 239.345 432.1 238.828C432.1 238.31 431.984 237.847 431.753 237.439C431.522 237.032 431.202 236.712 430.794 236.481C430.398 236.249 429.946 236.133 429.439 236.133ZM432.827 240.794L428.762 247.505C428.607 247.736 428.414 247.852 428.183 247.852C428.007 247.852 427.858 247.802 427.737 247.703C427.627 247.604 427.555 247.477 427.522 247.323C427.5 247.168 427.533 247.014 427.621 246.86L430.332 242.431L432.827 240.794ZM429.688 265.868C428.895 265.868 428.184 265.686 427.556 265.323C426.928 264.948 426.427 264.447 426.052 263.819C425.689 263.18 425.507 262.463 425.507 261.67C425.507 261.483 425.567 261.329 425.689 261.207C425.81 261.086 425.959 261.026 426.135 261.026C426.322 261.026 426.476 261.086 426.598 261.207C426.73 261.329 426.796 261.483 426.796 261.67C426.796 262.221 426.923 262.717 427.176 263.158C427.43 263.598 427.771 263.945 428.201 264.199C428.642 264.452 429.137 264.579 429.688 264.579C430.239 264.579 430.735 264.452 431.176 264.199C431.617 263.945 431.964 263.598 432.217 263.158C432.471 262.717 432.597 262.221 432.597 261.67C432.597 261.119 432.471 260.623 432.217 260.183C431.964 259.742 431.617 259.395 431.176 259.141C430.735 258.888 430.239 258.761 429.688 258.761H426.796C426.609 258.761 426.454 258.701 426.333 258.579C426.212 258.447 426.151 258.293 426.151 258.117V253.588C426.151 253.412 426.212 253.263 426.333 253.142C426.454 253.01 426.609 252.944 426.796 252.944H432.597C432.774 252.944 432.922 253.01 433.043 253.142C433.176 253.263 433.242 253.412 433.242 253.588C433.242 253.764 433.181 253.919 433.06 254.051C432.939 254.172 432.785 254.233 432.597 254.233H427.424V257.472H429.688C430.493 257.472 431.209 257.659 431.837 258.034C432.465 258.398 432.961 258.899 433.324 259.538C433.699 260.166 433.886 260.877 433.886 261.67C433.886 262.463 433.699 263.18 433.324 263.819C432.961 264.447 432.465 264.948 431.837 265.323C431.209 265.686 430.493 265.868 429.688 265.868ZM426.63 283.868C426.454 283.868 426.299 283.808 426.167 283.686C426.046 283.565 425.985 283.411 425.985 283.224C425.985 283.058 426.046 282.91 426.167 282.777L431.175 276.86C431.45 276.563 431.671 276.232 431.836 275.869C432.001 275.494 432.084 275.147 432.084 274.828C432.084 274.31 431.979 273.852 431.77 273.456C431.572 273.059 431.285 272.751 430.911 272.53C430.547 272.299 430.128 272.183 429.654 272.183C429.192 272.183 428.767 272.304 428.382 272.547C428.007 272.778 427.71 273.092 427.489 273.489C427.28 273.885 427.175 274.332 427.175 274.828C427.175 275.004 427.115 275.153 426.993 275.274C426.872 275.395 426.718 275.456 426.531 275.456C426.354 275.456 426.2 275.395 426.068 275.274C425.947 275.153 425.886 275.004 425.886 274.828C425.886 274.089 426.051 273.428 426.382 272.844C426.713 272.26 427.159 271.797 427.721 271.456C428.294 271.114 428.938 270.944 429.654 270.944C430.371 270.944 431.004 271.109 431.555 271.439C432.117 271.77 432.552 272.227 432.861 272.811C433.18 273.395 433.34 274.067 433.34 274.828C433.34 275.191 433.28 275.538 433.158 275.869C433.048 276.199 432.894 276.519 432.696 276.827C432.497 277.125 432.282 277.406 432.051 277.67L427.82 282.579H432.993C433.169 282.579 433.318 282.645 433.439 282.777C433.572 282.91 433.638 283.058 433.638 283.224C433.638 283.411 433.572 283.565 433.439 283.686C433.318 283.808 433.169 283.868 432.993 283.868H426.63Z" fill="#071952"/>
</svg>
