<svg xmlns="http://www.w3.org/2000/svg" fill="none" viewBox="0 0 40 40" id="Behance-Logo--Streamline-Flex-Remix.svg" height="40" width="40"><desc>Behance Logo Streamline Icon: https://streamlinehq.com</desc><g id="behance-logo"><path id="Union" fill="#000000" fill-rule="evenodd" d="M37.08428571428571 8.928571428571429c0 0.9862285714285715 -0.7994285714285714 1.7857142857142858 -1.7857142857142858 1.7857142857142858H25.6406c-0.9862285714285715 0 -1.7857142857142858 -0.7994857142857144 -1.7857142857142858 -1.7857142857142858s0.7994857142857144 -1.7857142857142858 1.7857142857142858 -1.7857142857142858h9.657971428571429c0.9862857142857143 0 1.7857142857142858 0.7994857142857144 1.7857142857142858 1.7857142857142858ZM3.5714285714285716 11.168914285714287v6.153028571428572h4.490714285714286c1.3224857142857143 0 2.5810857142857144 -0.41185714285714287 3.444657142857143 -1.0663428571428573 0.8291714285714287 -0.6284 1.245542857142857 -1.423142857142857 1.194057142857143 -2.3644857142857143 -0.08351428571428571 -1.5269714285714286 -1.4847428571428571 -2.9253428571428572 -3.4002571428571433 -3.101457142857143 -1.8551428571428572 -0.17054285714285713 -3.6027142857142858 -0.05494285714285715 -5.729171428571428 0.37925714285714285Zm10.726028571428571 7.3943142857142865c1.2523714285714287 -1.1950571428571428 2.0794857142857146 -2.856057142857143 1.9694857142857145 -4.867142857142857 -0.19937142857142856 -3.6456571428571425 -3.3331142857142857 -6.158914285714285 -6.639399999999999 -6.462857142857143 -2.7328 -0.2512285714285714 -5.2226 0.026000000000000002 -8.268251428571428 0.7749428571428573C0.5611 8.204457142857143 0 8.920257142857142 0 9.742228571428571v20.372914285714284c0 0.8220000000000001 0.5611 1.5377142857142858 1.3592914285714286 1.734 3.555822857142857 0.8745714285714286 6.446165714285715 1.1942857142857142 9.61448 0.9031428571428571 3.7640857142857147 -0.34600000000000003 7.295342857142858 -3.2022857142857144 7.5195428571428575 -7.3013714285714295 0.14334285714285713 -2.6208285714285715 -1.1268571428571428 -4.716057142857143 -2.935857142857143 -6.087028571428571 -0.3946571428571429 -0.2991142857142857 -0.8168571428571428 -0.5661714285714285 -1.26 -0.8006571428571428ZM3.5714285714285716 20.89337142857143v7.799485714285715c2.636257142857143 0.5577142857142857 4.785571428571428 0.7134285714285714 7.0754 0.5028571428571429 2.373285714285714 -0.21800000000000003 4.172085714285714 -1.9593714285714285 4.2804 -3.9398285714285715 0.06717142857142858 -1.2284285714285714 -0.4851142857142857 -2.2560857142857147 -1.5269428571428572 -3.045657142857143 -1.0762 -0.8156285714285715 -2.624114285714286 -1.3168571428571427 -4.237714285714286 -1.3168571428571427H3.5714285714285716Zm26.899142857142856 -6.906914285714286c-2.8010571428571427 0 -5.243314285714286 0.7829428571428572 -6.985885714285714 2.5042 -1.7458 1.7244285714285716 -2.5444 4.148571428571429 -2.5444 6.9312000000000005 0 2.782657142857143 0.7986 5.206714285714286 2.5444 6.931285714285714 1.7425714285714287 1.7211428571428573 4.184828571428572 2.504 6.985885714285714 2.504 3.0894285714285714 0 5.736857142857143 -0.9557142857142857 7.482285714285714 -3.0437142857142856 0.6325714285714287 -0.7565714285714286 0.5317142857142857 -1.882857142857143 -0.22485714285714287 -2.515342857142857 -0.7565714285714286 -0.6325142857142857 -1.882857142857143 -0.5318285714285714 -2.5154285714285716 0.22485714285714287 -0.876 1.0482857142857143 -2.3722857142857143 1.7627714285714287 -4.742 1.7627714285714287 -2.1555714285714287 0 -3.585571428571429 -0.594 -4.476114285714286 -1.4735142857142858 -0.6086857142857143 -0.6012571428571428 -1.0800285714285716 -1.4492 -1.316 -2.6046285714285715h13.536399999999999c0.9862857142857143 0 1.7857142857142858 -0.7994857142857144 1.7857142857142858 -1.7857142857142858 0 -2.7826285714285715 -0.7985714285714287 -5.206771428571429 -2.544285714285714 -6.9312000000000005 -1.7425714285714287 -1.7212571428571428 -4.184857142857143 -2.5042 -6.985714285714286 -2.5042Zm4.476 5.045085714285714c0.6085714285714285 0.6012571428571428 1.08 1.4492 1.316 2.6046H24.678457142857145c0.23597142857142855 -1.1554000000000002 0.7073142857142858 -2.003342857142857 1.316 -2.6046 0.8905428571428572 -0.8796571428571428 2.3205428571428572 -1.473657142857143 4.476114285714286 -1.473657142857143 2.1554285714285712 0 3.5854285714285714 0.594 4.476 1.473657142857143Z" clip-rule="evenodd" stroke-width="1"></path></g></svg>