<svg xmlns="http://www.w3.org/2000/svg" fill="none" viewBox="0 0 40 40" id="Github-Logo--Streamline-Flex-Remix.svg" height="40" width="40"><desc>Github Streamline Icon: https://streamlinehq.com</desc><g id="github--github-code-branch-developer-portal"><path id="Union" fill="#000000" fill-rule="evenodd" d="M20 -0.0027901771428571432c-6.158142857142857 0 -11.221371428571429 1.73750732 -14.743314285714288 5.259475891428572C1.7347171428571428 8.778628571428571 -0.0027901771428571432 13.841857142857142 -0.0027901771428571432 20c0 6.158171428571428 1.73750732 11.221428571428572 5.259475891428572 14.74342857142857 2.474285714285714 2.474285714285714 5.7092857142857145 4.067714285714286 9.55022857142857 4.796857142857143v0.0005714285714285715c0.13122857142857142 0.02457142857142857 0.2632 0.04857142857142858 0.3958857142857143 0.07114285714285715 1.5111142857142856 0.2608571428571429 3.1132 0.3908571428571429 4.7972 0.3908571428571429 1.6803142857142859 0 3.2790857142857144 -0.12942857142857142 4.787285714285715 -0.3891428571428571 0.1363714285714286 -0.023142857142857142 0.27194285714285715 -0.047714285714285716 0.40677142857142856 -0.07314285714285715v-0.00028571428571428574c3.8405142857142858 -0.7294285714285715 7.075085714285715 -2.322857142857143 9.54937142857143 -4.796857142857143C38.265142857142855 31.22142857142857 40.002857142857145 26.15817142857143 40.002857142857145 20c0 -6.158142857142857 -1.7377142857142855 -11.221371428571429 -5.259428571428572 -14.743314285714288C31.22142857142857 1.7347171428571428 26.15817142857143 -0.0027901771428571432 20 -0.0027901771428571432ZM25.194057142857147 35.894000000000005c2.9435428571428575 -0.6657142857142858 5.277085714285715 -1.9294285714285715 7.023942857142857 -3.676 2.6717142857142857 -2.672 4.2134285714285715 -6.717228571428572 4.2134285714285715 -12.218 0 -5.500771428571428 -1.5417142857142856 -9.546085714285715 -4.2134285714285715 -12.217942857142857 -2.672 -2.671857142857143 -6.717228571428572 -4.2134285714285715 -12.218 -4.2134285714285715 -5.500771428571428 0 -9.546085714285715 1.5415714285714286 -12.217942857142857 4.2134285714285715C5.1102 10.453914285714285 3.5686285714285715 14.49922857142857 3.5686285714285715 20c0 5.500771428571428 1.5415714285714286 9.546 4.2134285714285715 12.218 1.7468857142857144 1.746857142857143 4.080857142857143 3.0105714285714287 7.024857142857143 3.676285714285714v-1.9720000000000002c-1.5151714285714284 -0.038857142857142854 -3.0294 -0.27 -4.2524 -1.0874285714285714 -1.3049714285714284 -0.8720000000000001 -1.9944285714285712 -2.201142857142857 -2.277885714285714 -3.814857142857143l-0.7605714285714286 -0.6790285714285714c-0.7356857142857143 -0.6568571428571428 -0.7995714285714286 -1.7856857142857145 -0.14274285714285714 -2.5213428571428573 0.6568571428571428 -0.7356857142857143 1.7856857142857145 -0.7995714285714286 2.5213428571428573 -0.14274285714285714l1.25 1.1160857142857143c0.33305714285714283 0.29734285714285713 0.5426 0.7086571428571429 0.5874 1.152857142857143 0.1316857142857143 1.3058857142857143 0.5060571428571429 1.7187428571428571 0.8067142857142857 1.9196 0.38257142857142856 0.2557142857142857 1.0594000000000001 0.4471428571428572 2.315971428571429 0.4848571428571428 0.10488571428571429 -1.4791428571428573 0.38102857142857144 -2.991542857142857 0.8165142857142856 -3.8747142857142856 -4.6737714285714285 -1.0254857142857143 -7.233714285714286 -3.154257142857143 -7.233714285714286 -7.482171428571428 0 -1.6934571428571428 0.39191428571428566 -3.159542857142857 1.149057142857143 -4.378371428571429 -0.22462857142857143 -2.1397142857142857 0.016342857142857145 -4.186914285714286 0.3054 -5.342114285714286 0.07317142857142858 -0.2924857142857143 0.34991428571428573 -0.4462285714285715 0.6368857142857143 -0.35385714285714287 1.0077142857142858 0.3242857142857143 2.593914285714286 1.0532000000000001 4.126714285714286 2.1391142857142857 1.5247142857142857 -0.45391428571428577 3.312714285714286 -0.688 5.344857142857143 -0.688 2.032 0 3.8198857142857143 0.23405714285714288 5.344514285714285 0.6878857142857143 1.5327428571428574 -1.0858571428571429 3.1188857142857143 -1.814742857142857 4.126457142857143 -2.1390000000000002 0.28714285714285714 -0.09237142857142856 0.5637142857142857 0.06137142857142857 0.6368571428571428 0.35385714285714287 0.28914285714285715 1.155057142857143 0.53 3.201942857142857 0.3057142857142857 5.341371428571429 0.7574285714285715 1.2189999999999999 1.1494285714285715 2.685342857142857 1.1494285714285715 4.379114285714286 0 4.327914285714286 -2.56 6.456685714285714 -7.233714285714286 7.482171428571428 0.5674571428571429 1.1507714285714286 0.8643428571428572 3.369571428571428 0.8643428571428572 5.192142857142858v4.226285714285715Z" clip-rule="evenodd" stroke-width="1"></path></g></svg>