<svg xmlns="http://www.w3.org/2000/svg" fill="none" viewBox="0 0 40 40" id="Linkedin-Logo--Streamline-Flex-Remix.svg" height="40" width="40"><desc>Linkedin Logo Streamline Icon: https://streamlinehq.com</desc><g id="linkedin-logo--network-linkedin-professional"><path id="Union" fill="#000000" fill-rule="evenodd" d="M2.376162857142857 11.383571428571429c1.1696942857142858 1.1696857142857142 2.773694285714286 1.661857142857143 4.504037142857143 1.661857142857143 1.7303714285714287 0 3.3343714285714285 -0.4921714285714286 4.5040571428571425 -1.661857142857143 1.1696857142857142 -1.1696857142857142 1.6618857142857142 -2.7736857142857145 1.6618857142857142 -4.5040571428571425 0 -1.7303714285714287 -0.4922 -3.3343714285714285 -1.6618857142857142 -4.504048571428571C10.214571428571428 1.2057771428571429 8.61057142857143 0.7135885714285715 6.8802 0.7135885714285715c-1.7303428571428574 0 -3.334342857142857 0.4921885714285714 -4.504037142857143 1.6618771428571428C1.2064771428571428 3.545142857142857 0.7142857142857143 5.1491428571428575 0.7142857142857143 6.879514285714286s0.4921914285714286 3.3343714285714285 1.6618771428571428 4.5040571428571425ZM0.9960942857142858 20.263457142857142c0 -3.135742857142857 2.5420485714285714 -5.6778 5.67782 -5.6778 3.135742857142857 0 5.6778 2.542057142857143 5.6778 5.6778v13.344257142857144c0 3.1357142857142857 -2.542057142857143 5.678 -5.6778 5.678 -3.1357714285714287 0 -5.67782 -2.5422857142857143 -5.67782 -5.678V20.263457142857142Zm5.67782 -2.106371428571429c-1.163342857142857 0 -2.1064000000000003 0.9430571428571428 -2.1064000000000003 2.106371428571429v13.344257142857144c0 1.1634285714285715 0.9430571428571428 2.1065714285714283 2.1064000000000003 2.1065714285714283 1.1633142857142857 0 2.106371428571429 -0.9431428571428572 2.106371428571429 -2.1065714285714283V20.263457142857142c0 -1.1633142857142857 -0.9430571428571428 -2.106371428571429 -2.106371428571429 -2.106371428571429Zm7.913142857142858 8.778542857142858c0 -6.820685714285714 5.529257142857143 -12.349971428571429 12.349971428571429 -12.349971428571429 6.820685714285714 0 12.349828571428572 5.529285714285714 12.349828571428572 12.349971428571429v6.672085714285715c0 3.1357142857142857 -2.5420000000000003 5.678 -5.677714285714286 5.678 -3.1357142857142857 0 -5.677771428571429 -2.5422857142857143 -5.677771428571429 -5.678V26.93562857142857c0 -0.5491714285714285 -0.4451714285714286 -0.9943428571428572 -0.9943428571428572 -0.9943428571428572s-0.9943428571428572 0.4451714285714286 -0.9943428571428572 0.9943428571428572v6.672085714285715c0 3.1357142857142857 -2.542057142857143 5.678 -5.677828571428571 5.678 -3.1357714285714287 0 -5.6778 -2.5422857142857143 -5.6778 -5.678V26.93562857142857Zm12.349971428571429 -8.778542857142858c-4.848257142857143 0 -8.778542857142858 3.930285714285714 -8.778542857142858 8.778542857142858v6.672085714285715c0 1.1634285714285715 0.9430571428571428 2.1065714285714283 2.106371428571429 2.1065714285714283 1.1633142857142857 0 2.106371428571429 -0.9431428571428572 2.106371428571429 -2.1065714285714283V26.93562857142857c0 -2.5216000000000003 2.0441714285714285 -4.565771428571429 4.5658 -4.565771428571429 2.5215428571428573 0 4.565828571428571 2.0441714285714285 4.565828571428571 4.565771428571429v6.672085714285715c0 1.1634285714285715 0.9431428571428572 2.1065714285714283 2.1062857142857143 2.1065714285714283 1.1634285714285715 0 2.1062857142857143 -0.9431428571428572 2.1062857142857143 -2.1065714285714283V26.93562857142857c0 -4.848257142857143 -3.930285714285714 -8.778542857142858 -8.7784 -8.778542857142858Z" clip-rule="evenodd" stroke-width="1"></path></g></svg>