<svg width="57" height="39" viewBox="0 0 57 39" fill="none" xmlns="http://www.w3.org/2000/svg">
<path d="M6.75 9.158C6.75 7.922 6.69 7.094 6.57 6.674C6.45 6.242 6.216 6.026 5.868 6.026C5.52 6.026 5.208 6.242 4.932 6.674C4.656 7.106 4.518 7.7 4.518 8.456V11.804C4.518 12.32 4.62 12.758 4.824 13.118C5.04 13.478 5.34 13.658 5.724 13.658C6.12 13.658 6.39 13.394 6.534 12.866C6.678 12.338 6.75 11.414 6.75 10.094V9.158ZM4.518 0.499999V6.8C4.974 5.768 5.754 5.252 6.858 5.252C9.102 5.252 10.224 6.746 10.224 9.734C10.224 11.258 9.912 12.38 9.288 13.1C8.676 13.82 7.752 14.18 6.516 14.18C5.892 14.18 5.412 14.084 5.076 13.892C4.752 13.7 4.53 13.382 4.41 12.938L4.284 14H0.18V13.676H1.17V0.823999H0.18V0.499999H4.518ZM16.774 5.936C16.33 5.936 15.94 6.224 15.604 6.8C15.268 7.376 15.1 8.06 15.1 8.852V13.676H16.378V14H10.762V13.676H11.752V5.756H10.762V5.432H15.1V7.16C15.256 6.548 15.556 6.08 16 5.756C16.444 5.42 16.948 5.252 17.512 5.252C18.076 5.252 18.532 5.414 18.88 5.738C19.24 6.05 19.42 6.5 19.42 7.088C19.42 7.664 19.288 8.108 19.024 8.42C18.76 8.732 18.352 8.888 17.8 8.888C17.26 8.888 16.858 8.708 16.594 8.348C16.342 7.988 16.312 7.49 16.504 6.854H17.152C17.452 6.242 17.326 5.936 16.774 5.936ZM22.3201 4.19C21.6841 4.19 21.2281 4.028 20.9521 3.704C20.6881 3.38 20.5561 2.978 20.5561 2.498C20.5561 2.018 20.7001 1.622 20.9881 1.31C21.2881 0.998 21.7381 0.842 22.3381 0.842C22.9381 0.842 23.3941 0.986 23.7061 1.274C24.0181 1.55 24.1741 1.952 24.1741 2.48C24.1741 2.996 24.0241 3.41 23.7241 3.722C23.4241 4.034 22.9561 4.19 22.3201 4.19ZM19.6021 5.432H24.0121V13.676H25.0201V14H19.6741V13.676H20.6641V5.756H19.6021V5.432ZM29.707 9.77H30.229V8.384C30.229 7.244 30.163 6.482 30.031 6.098C29.911 5.702 29.671 5.504 29.311 5.504C29.095 5.504 28.897 5.564 28.717 5.684C28.549 5.792 28.465 5.948 28.465 6.152C28.465 6.344 28.501 6.542 28.573 6.746H29.023C29.119 6.998 29.167 7.304 29.167 7.664C29.167 8.012 29.017 8.318 28.717 8.582C28.417 8.834 28.039 8.96 27.583 8.96C26.551 8.96 26.035 8.462 26.035 7.466C26.035 5.99 27.289 5.252 29.797 5.252C31.225 5.252 32.209 5.498 32.749 5.99C33.301 6.47 33.577 7.358 33.577 8.654V12.308C33.577 12.932 33.751 13.244 34.099 13.244C34.507 13.244 34.747 12.626 34.819 11.39L35.089 11.408C35.041 12.464 34.843 13.19 34.495 13.586C34.147 13.982 33.577 14.18 32.785 14.18C31.345 14.18 30.517 13.736 30.301 12.848C30.145 13.304 29.911 13.64 29.599 13.856C29.287 14.072 28.831 14.18 28.231 14.18C26.455 14.18 25.567 13.454 25.567 12.002C25.567 11.15 25.903 10.568 26.575 10.256C27.259 9.932 28.303 9.77 29.707 9.77ZM28.987 11.984C28.987 12.608 29.017 13.01 29.077 13.19C29.149 13.37 29.275 13.46 29.455 13.46C29.647 13.46 29.821 13.31 29.977 13.01C30.145 12.698 30.229 12.272 30.229 11.732V10.058H30.103C29.359 10.058 28.987 10.604 28.987 11.696V11.984ZM35.3019 5.432H39.6399V7.088C39.8319 6.536 40.1259 6.092 40.5219 5.756C40.9179 5.42 41.5179 5.252 42.3219 5.252C44.1819 5.252 45.1119 6.254 45.1119 8.258V13.676H46.1199V14H41.0259V13.676H41.7639V7.826C41.7639 7.106 41.7159 6.644 41.6199 6.44C41.5239 6.224 41.3499 6.116 41.0979 6.116C40.7139 6.116 40.3719 6.368 40.0719 6.872C39.7839 7.376 39.6399 7.988 39.6399 8.708V13.676H40.4139V14H35.3019V13.676H36.2919V5.756H35.3019V5.432ZM50.6777 9.77H51.1997V8.384C51.1997 7.244 51.1337 6.482 51.0017 6.098C50.8817 5.702 50.6417 5.504 50.2817 5.504C50.0657 5.504 49.8677 5.564 49.6877 5.684C49.5197 5.792 49.4357 5.948 49.4357 6.152C49.4357 6.344 49.4717 6.542 49.5437 6.746H49.9937C50.0897 6.998 50.1377 7.304 50.1377 7.664C50.1377 8.012 49.9877 8.318 49.6877 8.582C49.3877 8.834 49.0097 8.96 48.5537 8.96C47.5217 8.96 47.0057 8.462 47.0057 7.466C47.0057 5.99 48.2597 5.252 50.7677 5.252C52.1957 5.252 53.1797 5.498 53.7197 5.99C54.2717 6.47 54.5477 7.358 54.5477 8.654V12.308C54.5477 12.932 54.7217 13.244 55.0697 13.244C55.4777 13.244 55.7177 12.626 55.7897 11.39L56.0597 11.408C56.0117 12.464 55.8137 13.19 55.4657 13.586C55.1177 13.982 54.5477 14.18 53.7557 14.18C52.3157 14.18 51.4877 13.736 51.2717 12.848C51.1157 13.304 50.8817 13.64 50.5697 13.856C50.2577 14.072 49.8017 14.18 49.2017 14.18C47.4257 14.18 46.5377 13.454 46.5377 12.002C46.5377 11.15 46.8737 10.568 47.5457 10.256C48.2297 9.932 49.2737 9.77 50.6777 9.77ZM49.9577 11.984C49.9577 12.608 49.9877 13.01 50.0477 13.19C50.1197 13.37 50.2457 13.46 50.4257 13.46C50.6177 13.46 50.7917 13.31 50.9477 13.01C51.1157 12.698 51.1997 12.272 51.1997 11.732V10.058H51.0737C50.3297 10.058 49.9577 10.604 49.9577 11.696V11.984ZM5.22 29.576C4.692 29.576 4.314 29.864 4.086 30.44C3.858 31.016 3.744 31.97 3.744 33.302V34.238C3.744 35.426 3.876 36.278 4.14 36.794C4.404 37.31 4.89 37.568 5.598 37.568C6.306 37.568 6.87 37.328 7.29 36.848C7.71 36.368 7.98 35.822 8.1 35.21L8.424 35.246C8.196 36.278 7.776 37.022 7.164 37.478C6.54 37.946 5.682 38.18 4.59 38.18C3.198 38.18 2.13 37.808 1.386 37.064C0.642 36.308 0.27 35.21 0.27 33.77C0.27 32.318 0.69 31.202 1.53 30.422C2.382 29.642 3.564 29.252 5.076 29.252C6.144 29.252 6.96 29.462 7.524 29.882C8.088 30.29 8.37 30.806 8.37 31.43C8.37 32.054 8.232 32.51 7.956 32.798C7.692 33.086 7.32 33.23 6.84 33.23C6.372 33.23 5.994 33.104 5.706 32.852C5.418 32.6 5.274 32.228 5.274 31.736C5.274 31.52 5.304 31.304 5.364 31.088H5.958C6.042 30.848 6.084 30.632 6.084 30.44C6.084 29.864 5.796 29.576 5.22 29.576ZM8.63339 24.5H13.0434V37.676H14.0514V38H8.70539V37.676H9.69539V24.824H8.63339V24.5ZM18.7207 33.77H19.2427V32.384C19.2427 31.244 19.1767 30.482 19.0447 30.098C18.9247 29.702 18.6847 29.504 18.3247 29.504C18.1087 29.504 17.9107 29.564 17.7307 29.684C17.5627 29.792 17.4787 29.948 17.4787 30.152C17.4787 30.344 17.5147 30.542 17.5867 30.746H18.0367C18.1327 30.998 18.1807 31.304 18.1807 31.664C18.1807 32.012 18.0307 32.318 17.7307 32.582C17.4307 32.834 17.0527 32.96 16.5967 32.96C15.5647 32.96 15.0487 32.462 15.0487 31.466C15.0487 29.99 16.3027 29.252 18.8107 29.252C20.2387 29.252 21.2227 29.498 21.7627 29.99C22.3147 30.47 22.5907 31.358 22.5907 32.654V36.308C22.5907 36.932 22.7647 37.244 23.1127 37.244C23.5207 37.244 23.7607 36.626 23.8327 35.39L24.1027 35.408C24.0547 36.464 23.8567 37.19 23.5087 37.586C23.1607 37.982 22.5907 38.18 21.7987 38.18C20.3587 38.18 19.5307 37.736 19.3147 36.848C19.1587 37.304 18.9247 37.64 18.6127 37.856C18.3007 38.072 17.8447 38.18 17.2447 38.18C15.4687 38.18 14.5807 37.454 14.5807 36.002C14.5807 35.15 14.9167 34.568 15.5887 34.256C16.2727 33.932 17.3167 33.77 18.7207 33.77ZM18.0007 35.984C18.0007 36.608 18.0307 37.01 18.0907 37.19C18.1627 37.37 18.2887 37.46 18.4687 37.46C18.6607 37.46 18.8347 37.31 18.9907 37.01C19.1587 36.698 19.2427 36.272 19.2427 35.732V34.058H19.1167C18.3727 34.058 18.0007 34.604 18.0007 35.696V35.984ZM30.2916 29.936C29.8476 29.936 29.4576 30.224 29.1216 30.8C28.7856 31.376 28.6176 32.06 28.6176 32.852V37.676H29.8956V38H24.2796V37.676H25.2696V29.756H24.2796V29.432H28.6176V31.16C28.7736 30.548 29.0736 30.08 29.5176 29.756C29.9616 29.42 30.4656 29.252 31.0296 29.252C31.5936 29.252 32.0496 29.414 32.3976 29.738C32.7576 30.05 32.9376 30.5 32.9376 31.088C32.9376 31.664 32.8056 32.108 32.5416 32.42C32.2776 32.732 31.8696 32.888 31.3176 32.888C30.7776 32.888 30.3756 32.708 30.1116 32.348C29.8596 31.988 29.8296 31.49 30.0216 30.854H30.6696C30.9696 30.242 30.8436 29.936 30.2916 29.936ZM38.9019 38V37.676H39.7299L37.6959 33.5L37.3539 33.59V37.676H38.1819V38H33.0159V37.676H34.0059V24.824H32.9439V24.5H37.3539V33.23L37.6419 33.122L41.6919 29.756H39.9999V29.432H43.5459V29.756H42.2859L40.1439 31.574L43.2579 37.676H43.9059V38H38.9019Z" fill="#243642"/>
</svg>
