<svg width="150" height="150" viewBox="0 0 150 150" fill="none" xmlns="http://www.w3.org/2000/svg">
<circle cx="75" cy="75" r="75" fill="#243642"/>
<path d="M47.644 78.64C47.644 78.736 47.608 78.82 47.536 78.892C47.464 78.964 47.38 79 47.284 79C47.18 79 47.092 78.964 47.02 78.892C46.956 78.82 46.924 78.736 46.924 78.64V73.12C46.924 73.024 46.956 72.94 47.02 72.868C47.092 72.796 47.18 72.76 47.284 72.76C47.388 72.76 47.472 72.796 47.536 72.868C47.608 72.94 47.644 73.024 47.644 73.12V78.64ZM47.284 71.956C47.116 71.956 46.988 71.92 46.9 71.848C46.82 71.768 46.78 71.656 46.78 71.512V71.392C46.78 71.248 46.824 71.14 46.912 71.068C47.008 70.988 47.136 70.948 47.296 70.948C47.448 70.948 47.564 70.988 47.644 71.068C47.732 71.14 47.776 71.248 47.776 71.392V71.512C47.776 71.656 47.732 71.768 47.644 71.848C47.564 71.92 47.444 71.956 47.284 71.956ZM50.3064 78.64C50.3064 78.736 50.2704 78.82 50.1984 78.892C50.1264 78.964 50.0424 79 49.9464 79C49.8424 79 49.7544 78.964 49.6824 78.892C49.6184 78.82 49.5864 78.736 49.5864 78.64V70.48C49.5864 70.384 49.6224 70.3 49.6944 70.228C49.7664 70.156 49.8504 70.12 49.9464 70.12C50.0504 70.12 50.1344 70.156 50.1984 70.228C50.2704 70.3 50.3064 70.384 50.3064 70.48V78.64ZM53.072 78.64C53.072 78.736 53.036 78.82 52.964 78.892C52.892 78.964 52.808 79 52.712 79C52.608 79 52.52 78.964 52.448 78.892C52.384 78.82 52.352 78.736 52.352 78.64V70.48C52.352 70.384 52.388 70.3 52.46 70.228C52.532 70.156 52.616 70.12 52.712 70.12C52.816 70.12 52.9 70.156 52.964 70.228C53.036 70.3 53.072 70.384 53.072 70.48V78.64ZM59.5711 72.904C59.6751 72.904 59.7591 72.94 59.8231 73.012C59.8951 73.084 59.9311 73.168 59.9311 73.264V76.648C59.9311 77.44 59.7071 78.044 59.2591 78.46C58.8111 78.876 58.2071 79.084 57.4471 79.084C56.6951 79.084 56.0951 78.876 55.6471 78.46C55.2071 78.044 54.9871 77.44 54.9871 76.648V73.264C54.9871 73.168 55.0191 73.084 55.0831 73.012C55.1551 72.94 55.2431 72.904 55.3471 72.904C55.4511 72.904 55.5351 72.94 55.5991 73.012C55.6711 73.084 55.7071 73.168 55.7071 73.264V76.648C55.7071 77.224 55.8591 77.664 56.1631 77.968C56.4751 78.264 56.9031 78.412 57.4471 78.412C57.9991 78.412 58.4311 78.264 58.7431 77.968C59.0551 77.664 59.2111 77.224 59.2111 76.648V73.264C59.2111 73.168 59.2431 73.084 59.3071 73.012C59.3711 72.94 59.4591 72.904 59.5711 72.904ZM61.4711 78.028C61.4071 77.932 61.3751 77.84 61.3751 77.752C61.3831 77.656 61.4351 77.58 61.5311 77.524C61.5951 77.468 61.6671 77.444 61.7471 77.452C61.8351 77.46 61.9151 77.5 61.9871 77.572C62.2031 77.852 62.4631 78.08 62.7671 78.256C63.0791 78.424 63.4471 78.508 63.8711 78.508C64.0951 78.508 64.3151 78.472 64.5311 78.4C64.7551 78.32 64.9391 78.204 65.0831 78.052C65.2271 77.892 65.2991 77.692 65.2991 77.452C65.2991 77.204 65.2271 77.004 65.0831 76.852C64.9391 76.7 64.7511 76.58 64.5191 76.492C64.2951 76.404 64.0551 76.328 63.7991 76.264C63.5271 76.192 63.2631 76.112 63.0071 76.024C62.7511 75.928 62.5231 75.812 62.3231 75.676C62.1311 75.532 61.9751 75.36 61.8551 75.16C61.7351 74.96 61.6751 74.716 61.6751 74.428C61.6751 74.092 61.7671 73.796 61.9511 73.54C62.1351 73.284 62.3831 73.084 62.6951 72.94C63.0151 72.796 63.3751 72.724 63.7751 72.724C63.9751 72.724 64.1911 72.752 64.4231 72.808C64.6551 72.856 64.8831 72.94 65.1071 73.06C65.3311 73.18 65.5311 73.344 65.7071 73.552C65.7791 73.624 65.8151 73.708 65.8151 73.804C65.8151 73.892 65.7751 73.972 65.6951 74.044C65.6311 74.092 65.5551 74.116 65.4671 74.116C65.3871 74.116 65.3191 74.084 65.2631 74.02C65.0711 73.804 64.8431 73.64 64.5791 73.528C64.3151 73.416 64.0311 73.36 63.7271 73.36C63.4951 73.36 63.2751 73.4 63.0671 73.48C62.8671 73.552 62.6991 73.664 62.5631 73.816C62.4271 73.968 62.3591 74.168 62.3591 74.416C62.3751 74.648 62.4551 74.836 62.5991 74.98C62.7511 75.124 62.9471 75.244 63.1871 75.34C63.4351 75.436 63.7111 75.524 64.0151 75.604C64.2711 75.668 64.5151 75.744 64.7471 75.832C64.9871 75.92 65.1951 76.032 65.3711 76.168C65.5551 76.296 65.6991 76.46 65.8031 76.66C65.9151 76.86 65.9711 77.112 65.9711 77.416C65.9711 77.768 65.8711 78.072 65.6711 78.328C65.4791 78.584 65.2191 78.78 64.8911 78.916C64.5631 79.052 64.1991 79.12 63.7991 79.12C63.3671 79.12 62.9471 79.036 62.5391 78.868C62.1391 78.7 61.7831 78.42 61.4711 78.028ZM67.0481 72.892H69.8441C69.9401 72.892 70.0201 72.928 70.0841 73C70.1481 73.064 70.1801 73.144 70.1801 73.24C70.1801 73.328 70.1481 73.404 70.0841 73.468C70.0201 73.532 69.9401 73.564 69.8441 73.564H67.0481C66.9521 73.564 66.8681 73.532 66.7961 73.468C66.7321 73.396 66.7001 73.316 66.7001 73.228C66.7001 73.132 66.7321 73.052 66.7961 72.988C66.8681 72.924 66.9521 72.892 67.0481 72.892ZM68.2841 71.2C68.3881 71.2 68.4721 71.236 68.5361 71.308C68.6081 71.38 68.6441 71.464 68.6441 71.56V77.584C68.6441 77.808 68.6721 77.976 68.7281 78.088C68.7921 78.2 68.8721 78.276 68.9681 78.316C69.0641 78.348 69.1601 78.364 69.2561 78.364C69.3201 78.364 69.3761 78.356 69.4241 78.34C69.4801 78.316 69.5401 78.304 69.6041 78.304C69.6761 78.304 69.7361 78.332 69.7841 78.388C69.8401 78.444 69.8681 78.516 69.8681 78.604C69.8681 78.716 69.8041 78.812 69.6761 78.892C69.5481 78.964 69.3961 79 69.2201 79C69.1481 79 69.0401 78.996 68.8961 78.988C68.7521 78.972 68.6041 78.928 68.4521 78.856C68.3001 78.776 68.1721 78.64 68.0681 78.448C67.9721 78.256 67.9241 77.98 67.9241 77.62V71.56C67.9241 71.464 67.9561 71.38 68.0201 71.308C68.0921 71.236 68.1801 71.2 68.2841 71.2ZM71.8705 79C71.7585 79 71.6705 78.964 71.6065 78.892C71.5425 78.82 71.5105 78.736 71.5105 78.64V73.264C71.5105 73.168 71.5425 73.084 71.6065 73.012C71.6785 72.94 71.7665 72.904 71.8705 72.904C71.9745 72.904 72.0585 72.94 72.1225 73.012C72.1945 73.084 72.2305 73.168 72.2305 73.264V75.064L72.0505 75.1C72.0745 74.82 72.1425 74.544 72.2545 74.272C72.3745 73.992 72.5345 73.736 72.7345 73.504C72.9345 73.272 73.1705 73.084 73.4425 72.94C73.7225 72.796 74.0345 72.724 74.3785 72.724C74.5225 72.724 74.6625 72.756 74.7985 72.82C74.9345 72.876 75.0025 72.972 75.0025 73.108C75.0025 73.228 74.9705 73.32 74.9065 73.384C74.8425 73.448 74.7665 73.48 74.6785 73.48C74.6065 73.48 74.5265 73.46 74.4385 73.42C74.3585 73.38 74.2505 73.36 74.1145 73.36C73.8905 73.36 73.6665 73.428 73.4425 73.564C73.2185 73.692 73.0145 73.868 72.8305 74.092C72.6465 74.316 72.4985 74.568 72.3865 74.848C72.2825 75.12 72.2305 75.396 72.2305 75.676V78.64C72.2305 78.736 72.1945 78.82 72.1225 78.892C72.0505 78.964 71.9665 79 71.8705 79ZM81.0151 72.868C81.1191 72.868 81.2031 72.904 81.2671 72.976C81.3391 73.048 81.3751 73.136 81.3751 73.24V78.64C81.3751 78.736 81.3391 78.82 81.2671 78.892C81.1951 78.964 81.1111 79 81.0151 79C80.9111 79 80.8231 78.964 80.7511 78.892C80.6871 78.82 80.6551 78.736 80.6551 78.64V77.212L80.8591 77.116C80.8591 77.34 80.7951 77.568 80.6671 77.8C80.5471 78.032 80.3791 78.248 80.1631 78.448C79.9471 78.648 79.6911 78.812 79.3951 78.94C79.1071 79.06 78.7951 79.12 78.4591 79.12C77.9151 79.12 77.4271 78.98 76.9951 78.7C76.5711 78.42 76.2351 78.036 75.9871 77.548C75.7471 77.06 75.6271 76.512 75.6271 75.904C75.6271 75.28 75.7511 74.732 75.9991 74.26C76.2471 73.78 76.5831 73.404 77.0071 73.132C77.4311 72.86 77.9111 72.724 78.4471 72.724C78.7911 72.724 79.1111 72.784 79.4071 72.904C79.7111 73.024 79.9751 73.188 80.1991 73.396C80.4231 73.604 80.5951 73.844 80.7151 74.116C80.8431 74.38 80.9071 74.656 80.9071 74.944L80.6551 74.764V73.24C80.6551 73.136 80.6871 73.048 80.7511 72.976C80.8231 72.904 80.9111 72.868 81.0151 72.868ZM78.5191 78.448C78.9431 78.448 79.3191 78.34 79.6471 78.124C79.9751 77.9 80.2311 77.596 80.4151 77.212C80.6071 76.82 80.7031 76.384 80.7031 75.904C80.7031 75.432 80.6071 75.008 80.4151 74.632C80.2311 74.256 79.9751 73.956 79.6471 73.732C79.3191 73.508 78.9431 73.396 78.5191 73.396C78.1031 73.396 77.7271 73.504 77.3911 73.72C77.0631 73.936 76.8031 74.232 76.6111 74.608C76.4271 74.984 76.3351 75.416 76.3351 75.904C76.3351 76.384 76.4271 76.82 76.6111 77.212C76.8031 77.596 77.0631 77.9 77.3911 78.124C77.7191 78.34 78.0951 78.448 78.5191 78.448ZM82.8684 72.892H85.6644C85.7604 72.892 85.8404 72.928 85.9044 73C85.9684 73.064 86.0004 73.144 86.0004 73.24C86.0004 73.328 85.9684 73.404 85.9044 73.468C85.8404 73.532 85.7604 73.564 85.6644 73.564H82.8684C82.7724 73.564 82.6884 73.532 82.6164 73.468C82.5524 73.396 82.5204 73.316 82.5204 73.228C82.5204 73.132 82.5524 73.052 82.6164 72.988C82.6884 72.924 82.7724 72.892 82.8684 72.892ZM84.1044 71.2C84.2084 71.2 84.2924 71.236 84.3564 71.308C84.4284 71.38 84.4644 71.464 84.4644 71.56V77.584C84.4644 77.808 84.4924 77.976 84.5484 78.088C84.6124 78.2 84.6924 78.276 84.7884 78.316C84.8844 78.348 84.9804 78.364 85.0764 78.364C85.1404 78.364 85.1964 78.356 85.2444 78.34C85.3004 78.316 85.3604 78.304 85.4244 78.304C85.4964 78.304 85.5564 78.332 85.6044 78.388C85.6604 78.444 85.6884 78.516 85.6884 78.604C85.6884 78.716 85.6244 78.812 85.4964 78.892C85.3684 78.964 85.2164 79 85.0404 79C84.9684 79 84.8604 78.996 84.7164 78.988C84.5724 78.972 84.4244 78.928 84.2724 78.856C84.1204 78.776 83.9924 78.64 83.8884 78.448C83.7924 78.256 83.7444 77.98 83.7444 77.62V71.56C83.7444 71.464 83.7764 71.38 83.8404 71.308C83.9124 71.236 84.0004 71.2 84.1044 71.2ZM88.0268 78.64C88.0268 78.736 87.9908 78.82 87.9188 78.892C87.8468 78.964 87.7628 79 87.6668 79C87.5628 79 87.4748 78.964 87.4028 78.892C87.3388 78.82 87.3068 78.736 87.3068 78.64V73.12C87.3068 73.024 87.3388 72.94 87.4028 72.868C87.4748 72.796 87.5628 72.76 87.6668 72.76C87.7708 72.76 87.8548 72.796 87.9188 72.868C87.9908 72.94 88.0268 73.024 88.0268 73.12V78.64ZM87.6668 71.956C87.4988 71.956 87.3708 71.92 87.2828 71.848C87.2028 71.768 87.1628 71.656 87.1628 71.512V71.392C87.1628 71.248 87.2068 71.14 87.2948 71.068C87.3908 70.988 87.5188 70.948 87.6788 70.948C87.8308 70.948 87.9468 70.988 88.0268 71.068C88.1148 71.14 88.1588 71.248 88.1588 71.392V71.512C88.1588 71.656 88.1148 71.768 88.0268 71.848C87.9468 71.92 87.8268 71.956 87.6668 71.956ZM95.6092 75.928C95.6092 76.536 95.4772 77.084 95.2132 77.572C94.9492 78.052 94.5892 78.432 94.1332 78.712C93.6772 78.984 93.1572 79.12 92.5732 79.12C92.0052 79.12 91.4892 78.984 91.0252 78.712C90.5692 78.432 90.2052 78.052 89.9332 77.572C89.6692 77.084 89.5372 76.536 89.5372 75.928C89.5372 75.312 89.6692 74.764 89.9332 74.284C90.2052 73.804 90.5692 73.424 91.0252 73.144C91.4892 72.864 92.0052 72.724 92.5732 72.724C93.1572 72.724 93.6772 72.864 94.1332 73.144C94.5892 73.424 94.9492 73.804 95.2132 74.284C95.4772 74.764 95.6092 75.312 95.6092 75.928ZM94.8892 75.928C94.8892 75.44 94.7892 75.008 94.5892 74.632C94.3892 74.248 94.1132 73.948 93.7612 73.732C93.4172 73.508 93.0212 73.396 92.5732 73.396C92.1412 73.396 91.7492 73.508 91.3972 73.732C91.0452 73.948 90.7652 74.248 90.5572 74.632C90.3572 75.008 90.2572 75.44 90.2572 75.928C90.2572 76.416 90.3572 76.848 90.5572 77.224C90.7652 77.6 91.0452 77.9 91.3972 78.124C91.7492 78.34 92.1412 78.448 92.5732 78.448C93.0212 78.448 93.4172 78.34 93.7612 78.124C94.1132 77.9 94.3892 77.6 94.5892 77.224C94.7892 76.848 94.8892 76.416 94.8892 75.928ZM100.031 72.724C100.559 72.724 100.979 72.832 101.291 73.048C101.611 73.256 101.839 73.544 101.975 73.912C102.119 74.272 102.191 74.672 102.191 75.112V78.64C102.191 78.736 102.155 78.82 102.083 78.892C102.011 78.964 101.927 79 101.831 79C101.719 79 101.631 78.964 101.567 78.892C101.503 78.82 101.471 78.736 101.471 78.64V75.148C101.471 74.828 101.419 74.536 101.315 74.272C101.211 74.008 101.039 73.796 100.799 73.636C100.567 73.476 100.259 73.396 99.8754 73.396C99.5314 73.396 99.2034 73.476 98.8914 73.636C98.5874 73.796 98.3394 74.008 98.1474 74.272C97.9554 74.536 97.8594 74.828 97.8594 75.148V78.64C97.8594 78.736 97.8234 78.82 97.7514 78.892C97.6794 78.964 97.5954 79 97.4994 79C97.3874 79 97.2994 78.964 97.2354 78.892C97.1714 78.82 97.1394 78.736 97.1394 78.64V73.264C97.1394 73.168 97.1714 73.084 97.2354 73.012C97.3074 72.94 97.3954 72.904 97.4994 72.904C97.6034 72.904 97.6874 72.94 97.7514 73.012C97.8234 73.084 97.8594 73.168 97.8594 73.264V74.272L97.5834 74.704C97.5994 74.448 97.6794 74.204 97.8234 73.972C97.9754 73.732 98.1674 73.52 98.3994 73.336C98.6314 73.144 98.8874 72.996 99.1674 72.892C99.4554 72.78 99.7434 72.724 100.031 72.724Z" fill="black"/>
</svg>
