<svg width="290" height="65" viewBox="0 0 290 65" fill="none" xmlns="http://www.w3.org/2000/svg">
<g clip-path="url(#clip0_17_3)">
<rect width="290" height="65" fill="white"/>
<path d="M2.008 17.4H16.36C20.808 17.4 24.136 18.008 26.344 19.224C28.584 20.408 29.704 22.424 29.704 25.272C29.704 29.656 27.064 32.28 21.784 33.144V33.24C28.184 34.04 31.384 36.824 31.384 41.592C31.384 45.08 30.072 47.528 27.448 48.936C24.824 50.312 21.048 51 16.12 51H2.008V50.088H5.128V18.312H2.008V17.4ZM14.488 34.008V50.088H16.744C18.504 50.088 19.736 49.48 20.44 48.264C21.144 47.048 21.496 45.256 21.496 42.888V40.344C21.496 38.232 21.064 36.648 20.2 35.592C19.336 34.536 17.8 34.008 15.592 34.008H14.488ZM14.488 18.312V33.096H15.736C17.4 33.096 18.552 32.6 19.192 31.608C19.864 30.584 20.2 29.032 20.2 26.952V24.696C20.2 22.328 19.912 20.68 19.336 19.752C18.76 18.792 17.656 18.312 16.024 18.312H14.488ZM49.1526 29.496C47.9686 29.496 46.9286 30.264 46.0326 31.8C45.1366 33.336 44.6886 35.16 44.6886 37.272V50.136H48.0966V51H33.1206V50.136H35.7606V29.016H33.1206V28.152H44.6886V32.76C45.1046 31.128 45.9046 29.88 47.0886 29.016C48.2726 28.12 49.6166 27.672 51.1206 27.672C52.6246 27.672 53.8406 28.104 54.7686 28.968C55.7286 29.8 56.2086 31 56.2086 32.568C56.2086 34.104 55.8566 35.288 55.1526 36.12C54.4486 36.952 53.3606 37.368 51.8886 37.368C50.4486 37.368 49.3766 36.888 48.6726 35.928C48.0006 34.968 47.9206 33.64 48.4326 31.944H50.1606C50.9606 30.312 50.6246 29.496 49.1526 29.496ZM63.9423 24.84C62.2463 24.84 61.0303 24.408 60.2943 23.544C59.5903 22.68 59.2383 21.608 59.2383 20.328C59.2383 19.048 59.6223 17.992 60.3903 17.16C61.1903 16.328 62.3903 15.912 63.9903 15.912C65.5903 15.912 66.8063 16.296 67.6383 17.064C68.4703 17.8 68.8863 18.872 68.8863 20.28C68.8863 21.656 68.4863 22.76 67.6863 23.592C66.8863 24.424 65.6383 24.84 63.9423 24.84ZM56.6943 28.152H68.4543V50.136H71.1423V51H56.8863V50.136H59.5263V29.016H56.6943V28.152ZM83.6406 39.72H85.0326V36.024C85.0326 32.984 84.8566 30.952 84.5046 29.928C84.1846 28.872 83.5446 28.344 82.5846 28.344C82.0086 28.344 81.4806 28.504 81.0006 28.824C80.5526 29.112 80.3286 29.528 80.3286 30.072C80.3286 30.584 80.4246 31.112 80.6166 31.656H81.8166C82.0726 32.328 82.2006 33.144 82.2006 34.104C82.2006 35.032 81.8006 35.848 81.0006 36.552C80.2006 37.224 79.1926 37.56 77.9766 37.56C75.2246 37.56 73.8486 36.232 73.8486 33.576C73.8486 29.64 77.1926 27.672 83.8806 27.672C87.6886 27.672 90.3126 28.328 91.7526 29.64C93.2246 30.92 93.9606 33.288 93.9606 36.744V46.488C93.9606 48.152 94.4246 48.984 95.3526 48.984C96.4406 48.984 97.0806 47.336 97.2726 44.04L97.9926 44.088C97.8646 46.904 97.3366 48.84 96.4086 49.896C95.4806 50.952 93.9606 51.48 91.8486 51.48C88.0086 51.48 85.8006 50.296 85.2246 47.928C84.8086 49.144 84.1846 50.04 83.3526 50.616C82.5206 51.192 81.3046 51.48 79.7046 51.48C74.9686 51.48 72.6006 49.544 72.6006 45.672C72.6006 43.4 73.4966 41.848 75.2886 41.016C77.1126 40.152 79.8966 39.72 83.6406 39.72ZM81.7206 45.624C81.7206 47.288 81.8006 48.36 81.9606 48.84C82.1526 49.32 82.4886 49.56 82.9686 49.56C83.4806 49.56 83.9446 49.16 84.3606 48.36C84.8086 47.528 85.0326 46.392 85.0326 44.952V40.488H84.6966C82.7126 40.488 81.7206 41.944 81.7206 44.856V45.624ZM98.5604 28.152H110.128V32.568C110.64 31.096 111.424 29.912 112.48 29.016C113.536 28.12 115.136 27.672 117.28 27.672C122.24 27.672 124.72 30.344 124.72 35.688V50.136H127.408V51H113.824V50.136H115.792V34.536C115.792 32.616 115.664 31.384 115.408 30.84C115.152 30.264 114.688 29.976 114.016 29.976C112.992 29.976 112.08 30.648 111.28 31.992C110.512 33.336 110.128 34.968 110.128 36.888V50.136H112.192V51H98.5604V50.136H101.2V29.016H98.5604V28.152ZM139.562 39.72H140.955V36.024C140.955 32.984 140.779 30.952 140.427 29.928C140.107 28.872 139.467 28.344 138.507 28.344C137.931 28.344 137.403 28.504 136.923 28.824C136.475 29.112 136.251 29.528 136.251 30.072C136.251 30.584 136.347 31.112 136.539 31.656H137.739C137.995 32.328 138.123 33.144 138.123 34.104C138.123 35.032 137.723 35.848 136.923 36.552C136.123 37.224 135.115 37.56 133.898 37.56C131.147 37.56 129.771 36.232 129.771 33.576C129.771 29.64 133.115 27.672 139.803 27.672C143.611 27.672 146.235 28.328 147.675 29.64C149.147 30.92 149.883 33.288 149.883 36.744V46.488C149.883 48.152 150.347 48.984 151.275 48.984C152.363 48.984 153.003 47.336 153.195 44.04L153.915 44.088C153.787 46.904 153.259 48.84 152.331 49.896C151.403 50.952 149.883 51.48 147.771 51.48C143.931 51.48 141.723 50.296 141.147 47.928C140.731 49.144 140.107 50.04 139.275 50.616C138.443 51.192 137.227 51.48 135.627 51.48C130.891 51.48 128.523 49.544 128.523 45.672C128.523 43.4 129.419 41.848 131.211 41.016C133.035 40.152 135.819 39.72 139.562 39.72ZM137.643 45.624C137.643 47.288 137.723 48.36 137.883 48.84C138.075 49.32 138.411 49.56 138.891 49.56C139.403 49.56 139.867 49.16 140.283 48.36C140.731 47.528 140.955 46.392 140.955 44.952V40.488H140.619C138.635 40.488 137.643 41.944 137.643 44.856V45.624ZM181.731 17.832C176.771 17.832 174.291 22.616 174.291 32.184V35.976C174.291 40.52 174.947 44.088 176.259 46.68C177.571 49.24 179.507 50.52 182.067 50.52C185.587 50.52 188.819 47.096 191.763 40.248H192.627L192.291 50.952H191.763C191.571 50.6 191.395 50.36 191.235 50.232C191.075 50.072 190.835 49.992 190.515 49.992C190.227 49.992 189.075 50.248 187.059 50.76C185.043 51.24 182.995 51.48 180.915 51.48C175.699 51.48 171.651 50.072 168.771 47.256C165.923 44.44 164.499 40.216 164.499 34.584C164.499 28.92 165.987 24.552 168.963 21.48C171.971 18.408 176.003 16.872 181.059 16.872C183.011 16.872 184.915 17.128 186.771 17.64C188.659 18.12 189.763 18.36 190.083 18.36C190.403 18.36 190.643 18.296 190.803 18.168C190.963 18.008 191.139 17.752 191.331 17.4H191.859L192.243 27.816H191.379C189.939 24.584 188.451 22.12 186.915 20.424C185.411 18.696 183.683 17.832 181.731 17.832ZM195.96 15H207.72V50.136H210.408V51H196.152V50.136H198.792V15.864H195.96V15ZM222.859 39.72H224.251V36.024C224.251 32.984 224.075 30.952 223.723 29.928C223.403 28.872 222.763 28.344 221.803 28.344C221.227 28.344 220.699 28.504 220.219 28.824C219.771 29.112 219.547 29.528 219.547 30.072C219.547 30.584 219.643 31.112 219.835 31.656H221.035C221.291 32.328 221.419 33.144 221.419 34.104C221.419 35.032 221.019 35.848 220.219 36.552C219.419 37.224 218.411 37.56 217.195 37.56C214.443 37.56 213.067 36.232 213.067 33.576C213.067 29.64 216.411 27.672 223.099 27.672C226.907 27.672 229.531 28.328 230.971 29.64C232.443 30.92 233.179 33.288 233.179 36.744V46.488C233.179 48.152 233.643 48.984 234.571 48.984C235.659 48.984 236.299 47.336 236.491 44.04L237.211 44.088C237.083 46.904 236.555 48.84 235.627 49.896C234.699 50.952 233.179 51.48 231.067 51.48C227.227 51.48 225.019 50.296 224.443 47.928C224.027 49.144 223.403 50.04 222.571 50.616C221.739 51.192 220.523 51.48 218.923 51.48C214.187 51.48 211.819 49.544 211.819 45.672C211.819 43.4 212.715 41.848 214.507 41.016C216.331 40.152 219.115 39.72 222.859 39.72ZM220.939 45.624C220.939 47.288 221.019 48.36 221.179 48.84C221.371 49.32 221.707 49.56 222.187 49.56C222.699 49.56 223.163 49.16 223.579 48.36C224.027 47.528 224.251 46.392 224.251 44.952V40.488H223.915C221.931 40.488 220.939 41.944 220.939 44.856V45.624ZM253.715 29.496C252.531 29.496 251.491 30.264 250.595 31.8C249.699 33.336 249.251 35.16 249.251 37.272V50.136H252.659V51H237.683V50.136H240.323V29.016H237.683V28.152H249.251V32.76C249.667 31.128 250.467 29.88 251.651 29.016C252.835 28.12 254.179 27.672 255.683 27.672C257.187 27.672 258.403 28.104 259.331 28.968C260.291 29.8 260.771 31 260.771 32.568C260.771 34.104 260.419 35.288 259.715 36.12C259.011 36.952 257.923 37.368 256.451 37.368C255.011 37.368 253.939 36.888 253.235 35.928C252.563 34.968 252.483 33.64 252.995 31.944H254.723C255.523 30.312 255.187 29.496 253.715 29.496ZM276.676 51V50.136H278.884L273.46 39L272.548 39.24V50.136H274.756V51H260.98V50.136H263.62V15.864H260.788V15H272.548V38.28L273.316 37.992L284.116 29.016H279.604V28.152H289.06V29.016H285.7L279.988 33.864L288.292 50.136H290.02V51H276.676Z" fill="black"/>
</g>
<defs>
<clipPath id="clip0_17_3">
<rect width="290" height="65" fill="white"/>
</clipPath>
</defs>
</svg>
